<?xml version="1.0" encoding="UTF-8"?>
<svg id="Layer_2" data-name="Layer 2" xmlns="http://www.w3.org/2000/svg" viewBox="0 0 1891.618164 172.964355">
  <defs>
    <style>
      .cls-1 {
        fill: #000;
        stroke-width: 0px;
      }
    </style>
  </defs>
  <g id="Layer_1-2" data-name="Layer 1">
    <g>
      <path class="cls-1" d="M26.975586,16.532715c4.135254,0,7.652832,1.105469,10.553223,3.314941,2.899414,2.210938,5.557129,5.329102,7.97168,9.357422l-6.702148,16.280762c-1.582031-2.628906-3.330566-4.712891-5.245117-6.251953-1.915039-1.538574-3.996582-2.308105-6.244629-2.308105-2.414551,0-4.620605,1.384766-6.618652,4.154297-1.998535,2.769531-3.594727,7.133301-4.787598,13.091797-1.193359,5.958496-1.790039,13.693848-1.790039,23.20459,0,13.987793,1.255371,24.156738,3.767578,30.505859,2.51123,6.350586,5.737793,9.525391,9.678711,9.525391,2.88623,0,5.286621-1.091309,7.20166-3.272949,1.915039-2.182129,3.677246-4.55957,5.287109-7.133789l6.202637,15.945312c-2.165039,4.309082-4.829102,8.001465-7.992676,11.078125-3.164062,3.076172-6.97998,4.615723-11.448242,4.615723-5.217773,0-9.845215-2.336914-13.883301-7.007812-4.037598-4.670898-7.20166-11.552246-9.491211-20.64502-2.289551-9.09082-3.43457-20.294434-3.43457-33.61084,0-12.979004,1.186523-24.001953,3.55957-33.06543,2.372559-9.063477,5.599121-15.958496,9.678711-20.687012,4.07959-4.727051,8.658691-7.091309,13.737305-7.091309Z"/>
      <path class="cls-1" d="M66.106934,8.644043v46.828613c3.69043-7.83252,8.02002-11.749023,12.988281-11.749023,3.94043,0,6.95166,2.322266,9.033203,6.965332,2.081543,4.644531,3.12207,11.190918,3.12207,19.638184v65.459473h-13.154785v-58.074219c0-5.371094-.29834-9.119141-.89502-11.245605-.59668-2.125977-1.713867-3.189453-3.351074-3.189453-1.387695,0-2.712891.965332-3.975586,2.895508-1.263184,1.930176-2.518555,4.57373-3.76709,7.930664v61.683105h-13.154785V11.245605l13.154785-2.601562Z"/>
      <path class="cls-1" d="M129.923828,46.660645v70.998535h11.239746v18.127441h-36.924805v-18.127441h12.530273v-52.871094h-12.11377v-18.127441h25.268555ZM121.972656,0c2.275391,0,4.134766,1.426758,5.578125,4.279785,1.442871,2.853516,2.165039,6.407227,2.165039,10.658203,0,4.252441-.722168,7.819336-2.165039,10.700195-1.443359,2.882324-3.302734,4.322266-5.578125,4.322266-2.303711,0-4.183594-1.439941-5.640625-4.322266-1.457031-2.880859-2.185547-6.447754-2.185547-10.700195,0-4.250977.728516-7.804688,2.185547-10.658203,1.457031-2.853027,3.336914-4.279785,5.640625-4.279785Z"/>
      <path class="cls-1" d="M190.078125,110.106445c0,3.356934.229004,5.790527.686523,7.30127.458008,1.510254,1.200195,2.657715,2.227539,3.440918l-2.706055,17.455566c-2.608887-.503418-4.808105-1.665039-6.598145-3.48291-1.790039-1.817383-3.199219-4.57373-4.225586-8.266113-1.692871,4.084473-3.857422,7.120117-6.494141,9.105469s-5.328125,2.979492-8.075684,2.979492c-4.551758,0-8.180176-2.616211-10.88623-7.84668-2.705566-5.230957-4.058594-11.958984-4.058594-20.183594,0-9.678711,1.879883-17.147949,5.640625-22.407227,3.760254-5.258301,9.054199-7.888672,15.881348-7.888672h5.953125v-3.356934c0-9.118652-2.914062-13.679688-8.742188-13.679688-1.415527,0-3.233398.406738-5.453125,1.217285-2.220703.811523-4.440918,1.972168-6.660645,3.482422l-3.039062-17.623535c2.85791-2.182129,5.834473-3.831543,8.929199-4.95166,3.094238-1.118164,5.862793-1.678223,8.305176-1.678223,6.577148,0,11.440918,2.699707,14.59082,8.098633,3.149414,5.399902,4.725098,13.189941,4.725098,23.37207v34.912109ZM169.430176,119.67334c1.415039,0,2.899414-.852051,4.454102-2.55957,1.554199-1.706055,2.733398-4.125,3.538574-7.259277v-14.43457h-3.24707c-3.663574,0-6.355469,1.132812-8.076172,3.398926-1.721191,2.265625-2.581055,5.580566-2.581055,9.944824,0,3.413086.520508,6.084473,1.561035,8.014648,1.041016,1.930176,2.490723,2.89502,4.350586,2.89502Z"/>
      <path class="cls-1" d="M202.816406,135.786621V46.660645h11.489258l.916016,10.322754c1.970215-4.475586,4.051758-7.804688,6.244629-9.986816,2.191895-2.182129,4.689453-3.272949,7.493164-3.272949,3.773926,0,6.743652,2.322266,8.908203,6.965332,2.165039,4.644531,3.24707,11.190918,3.24707,19.638184v65.459473h-13.154785v-57.822754c0-5.482422-.29834-9.300781-.89502-11.455566-.59668-2.152832-1.713867-3.230957-3.351074-3.230957-1.387695,0-2.712891.895996-3.975586,2.685547-1.263184,1.791504-2.518555,4.280273-3.76709,7.469238v62.354492h-13.154785Z"/>
      <path class="cls-1" d="M292.026855,32.394043l3.080566,19.470215c-1.554688,1.230957-3.37207,2.126465-5.453125,2.685059-2.081543.560059-4.510254.839355-7.285156.839355,2.774902,2.40625,4.891113,5.385742,6.348145,8.937988,1.457031,3.553711,2.185547,8.211426,2.185547,13.973145,0,5.763184-.763672,10.896484-2.289551,15.399414-1.526367,4.504395-3.691406,8.043457-6.494141,10.616211-2.803223,2.574219-6.119141,3.86084-9.949219,3.86084-1.831543,0-3.538574-.335938-5.120117-1.007324-.472168.503418-.83252,1.231445-1.08252,2.182129-.25.952148-.374512,1.930176-.374512,2.937012,0,1.399414.28418,2.658203.853027,3.776855.568848,1.119629,1.908203,1.678223,4.017578,1.678223h7.243164c3.440918,0,6.41748,1.120117,8.929688,3.356934,2.51123,2.238281,4.460449,5.287109,5.848633,9.147461,1.387207,3.86084,2.081543,8.279785,2.081543,13.259766,0,9.118652-1.984375,16.308594-5.953125,21.568359-3.96875,5.258301-9.865723,7.888672-17.692383,7.888672-5.661133,0-10.039551-1.161621-13.133789-3.48291-3.094727-2.322266-5.245117-5.622559-6.452148-9.902832-1.20752-4.279785-1.811035-9.357422-1.811035-15.231934h11.65625c0,2.572754.255859,4.685059.77002,6.336426.513184,1.649414,1.498535,2.866211,2.955566,3.650391,1.457031.782715,3.572754,1.174805,6.348145,1.174805,2.803223,0,4.939941-.448242,6.411133-1.342773,1.470703-.895508,2.477051-2.112305,3.018066-3.650391.541016-1.539551.811523-3.259766.811523-5.161133,0-2.630859-.513672-4.756348-1.540039-6.378418-1.026855-1.623047-2.650391-2.433594-4.870605-2.433594h-7.035156c-4.773926,0-8.242676-1.775391-10.407227-5.329102-2.165039-3.552246-3.24707-7.706543-3.24707-12.462402,0-3.300781.437012-6.433105,1.311035-9.399414.874512-2.964844,2.102539-5.455078,3.68457-7.469238-2.831055-3.020996-4.856934-6.587891-6.078125-10.700195-1.22168-4.112305-1.831543-9.049316-1.831543-14.812012,0-6.713867.846191-12.490234,2.539551-17.330078,1.692383-4.838867,4.030762-8.573242,7.01416-11.203613,2.98291-2.629395,6.390137-3.944336,10.219727-3.944336,3.302734.112793,6.174805-.349121,8.617188-1.384766,2.441895-1.034668,4.634766-2.461426,6.577637-4.280273,1.942383-1.817383,3.801758-3.762207,5.578125-5.83252ZM271.587402,61.095703c-2.081543,0-3.733398,1.32959-4.954102,3.986328-1.22168,2.657715-1.831543,6.308594-1.831543,10.95166,0,4.923828.624512,8.700684,1.873047,11.32959,1.249023,2.630371,2.88623,3.944336,4.912598,3.944336,4.495605,0,6.743652-5.203125,6.743652-15.609375,0-9.735352-2.248047-14.602539-6.743652-14.602539Z"/>
      <path class="cls-1" d="M315.463867,135.786621h-13.654297V19.469727h13.654297v116.316895ZM315.880371,73.684082l15.777344-54.214355h14.320312l-16.318848,52.200195,17.900879,64.116699h-15.819336l-15.860352-62.102539Z"/>
      <path class="cls-1" d="M389.896484,110.106445c0,3.356934.229004,5.790527.686523,7.30127.458008,1.510254,1.200195,2.657715,2.227539,3.440918l-2.706055,17.455566c-2.608887-.503418-4.808105-1.665039-6.598145-3.48291-1.790039-1.817383-3.199219-4.57373-4.225586-8.266113-1.692871,4.084473-3.857422,7.120117-6.494141,9.105469s-5.328125,2.979492-8.075684,2.979492c-4.551758,0-8.180176-2.616211-10.88623-7.84668-2.705566-5.230957-4.058594-11.958984-4.058594-20.183594,0-9.678711,1.879883-17.147949,5.640625-22.407227,3.760254-5.258301,9.054199-7.888672,15.881348-7.888672h5.953125v-3.356934c0-9.118652-2.914062-13.679688-8.742188-13.679688-1.415527,0-3.233398.406738-5.453125,1.217285-2.220703.811523-4.440918,1.972168-6.660645,3.482422l-3.039062-17.623535c2.85791-2.182129,5.834473-3.831543,8.929199-4.95166,3.094238-1.118164,5.862793-1.678223,8.305176-1.678223,6.577148,0,11.440918,2.699707,14.59082,8.098633,3.149414,5.399902,4.725098,13.189941,4.725098,23.37207v34.912109ZM369.248535,119.67334c1.415039,0,2.899414-.852051,4.454102-2.55957,1.554199-1.706055,2.733398-4.125,3.538574-7.259277v-14.43457h-3.24707c-3.663574,0-6.355469,1.132812-8.076172,3.398926-1.721191,2.265625-2.581055,5.580566-2.581055,9.944824,0,3.413086.520508,6.084473,1.561035,8.014648,1.041016,1.930176,2.490723,2.89502,4.350586,2.89502Z"/>
      <path class="cls-1" d="M429.651855,46.660645v70.998535h11.239746v18.127441h-36.924805v-18.127441h12.530273v-52.871094h-12.11377v-18.127441h25.268555ZM421.700684,0c2.275391,0,4.134766,1.426758,5.578125,4.279785,1.442871,2.853516,2.165039,6.407227,2.165039,10.658203,0,4.252441-.722168,7.819336-2.165039,10.700195-1.443359,2.882324-3.302734,4.322266-5.578125,4.322266-2.303711,0-4.183594-1.439941-5.640625-4.322266-1.457031-2.880859-2.185547-6.447754-2.185547-10.700195,0-4.250977.728516-7.804688,2.185547-10.658203,1.457031-2.853027,3.336914-4.279785,5.640625-4.279785Z"/>
      <path class="cls-1" d="M494.052246,101.797852c0,7.217285-.936523,13.595703-2.810059,19.134277-1.873535,5.539062-4.558594,9.875488-8.055176,13.008301-3.49707,3.132324-7.701172,4.699707-12.61377,4.699707-5.439453,0-9.998047-1.608887-13.674805-4.825684-3.677734-3.216797-6.723145-7.203125-9.137695-11.958984l6.910645-15.441895c2.136719,3.749023,4.495605,6.644531,7.07666,8.686035,2.581055,2.042969,5.411621,3.063477,8.492188,3.063477,2.858398,0,5.175781-1.244629,6.952148-3.734863,1.775879-2.48877,2.664062-6.000488,2.664062-10.532227,0-4.250977-.742676-7.580566-2.227051-9.986816-1.484863-2.404785-4.239258-4.838379-8.263184-7.30127-6.743652-4.139648-11.538574-9.021484-14.382812-14.644531-2.845215-5.622559-4.26709-12.853027-4.26709-21.693848,0-7.104492.978516-13.175781,2.935059-18.211426,1.956543-5.035156,4.585449-8.881348,7.888672-11.539062,3.302246-2.656738,6.9375-3.986328,10.906738-3.986328,4.467773,0,8.40918,1.300781,11.822754,3.902344s6.369141,6.308594,8.866699,11.119629l-6.452637,14.938477c-1.942871-3.300781-4.037598-5.749023-6.285645-7.343262-2.248047-1.594727-4.537598-2.39209-6.868652-2.39209-2.609375,0-4.704102.965332-6.286133,2.895508s-2.373047,4.770508-2.373047,8.518066c0,2.462891.34668,4.531738,1.041016,6.210449.693359,1.678223,1.900391,3.259766,3.621582,4.741699,1.720215,1.48291,4.106934,3.203125,7.160156,5.161133,3.635254,2.238281,6.750488,4.90918,9.345703,8.014648,2.594727,3.10498,4.579102,7.007324,5.953125,11.707031,1.373535,4.699707,2.060547,10.630859,2.060547,17.791504Z"/>
      <path class="cls-1" d="M515.699219,8.644043v46.828613c3.69043-7.83252,8.02002-11.749023,12.988281-11.749023,3.94043,0,6.95166,2.322266,9.033203,6.965332,2.081543,4.644531,3.12207,11.190918,3.12207,19.638184v65.459473h-13.154785v-58.074219c0-5.371094-.29834-9.119141-.89502-11.245605-.59668-2.125977-1.713867-3.189453-3.351074-3.189453-1.387695,0-2.712891.965332-3.975586,2.895508-1.263184,1.930176-2.518555,4.57373-3.76709,7.930664v61.683105h-13.154785V11.245605l13.154785-2.601562Z"/>
      <path class="cls-1" d="M563.905273,98.944824c.443359,7.273438,1.623535,12.491211,3.538574,15.651367,1.915039,3.161621,4.273438,4.741699,7.07666,4.741699,2.025391,0,3.982422-.671387,5.869629-2.01416s3.705078-3.132812,5.453613-5.371094l5.286621,14.43457c-2.081055,3.581055-4.599609,6.518555-7.555664,8.812012-2.955566,2.293457-6.320801,3.440918-10.094727,3.440918-5.05127,0-9.283203-2.028809-12.696777-6.084473s-5.980957-9.636719-7.70166-16.742676c-1.720703-7.104492-2.580566-15.273926-2.580566-24.505371,0-8.783203.83252-16.77002,2.497559-23.959961,1.665039-7.188477,4.100586-12.923828,7.305664-17.204102,3.205566-4.279785,7.125-6.419922,11.760254-6.419922,4.218262,0,7.874512,1.818848,10.969238,5.455078,3.094238,3.637207,5.495117,8.868164,7.20166,15.693359,1.707031,6.82666,2.560547,15.021973,2.560547,24.589355,0,1.510742-.020996,3.133789-.0625,4.867676-.041992,1.734375-.104004,3.272949-.1875,4.615723h-28.640625ZM572.064453,61.515137c-2.358887,0-4.260254,1.70752-5.703125,5.119141-1.443359,3.413574-2.317383,8.868164-2.622559,16.365234h16.235352c-.027832-6.489746-.652344-11.692871-1.873535-15.609863-1.221191-3.915527-3.233398-5.874512-6.036133-5.874512Z"/>
      <path class="cls-1" d="M615.608398,8.476074v127.310547h-13.154785V11.245605l13.154785-2.769531ZM644.415527,46.660645l-14.52832,39.443848,15.735352,49.682129h-14.986328l-14.52832-48.842773,14.52832-40.283203h13.779297Z"/>
      <path class="cls-1" d="M669.226074,16.532715c4.163086,0,7.708008,1.356934,10.63623,4.070312,2.927734,2.714355,5.162109,6.322754,6.702148,10.825684,1.540527,4.504395,2.310547,9.470215,2.310547,14.896484,0,7.385254-1.075684,13.35791-3.226074,17.91748-2.151367,4.560547-5.00293,7.875488-8.554688,9.944824,3.968262,1.063477,7.229004,3.791016,9.782715,8.182617,2.552734,4.392578,3.82959,11.287598,3.82959,20.686523,0,6.545898-.89502,12.504395-2.685059,17.875488s-4.350098,9.665527-7.680176,12.882324c-3.330566,3.216797-7.312988,4.825684-11.947754,4.825684-4.302246,0-8.15918-1.525391-11.572754-4.57373-3.413574-3.048828-6.327637-7.343262-8.742188-12.882324l7.410156-13.931152c1.665039,3.860352,3.517578,6.671875,5.557129,8.434082,2.040039,1.762695,4.197754,2.643555,6.473633,2.643555,2.85791,0,5.188965-1.468262,6.993652-4.405762,1.803711-2.9375,2.705566-7.175293,2.705566-12.714355,0-6.153809-.853027-10.587402-2.560059-13.301758-1.706543-2.712891-4.114746-4.070312-7.222656-4.070312h-5.245117l1.498535-18.294922h3.746582c2.553223,0,4.641602-1.258789,6.265137-3.776367,1.623535-2.518066,2.435547-6.321777,2.435547-11.413574,0-4.364258-.777344-7.804688-2.331543-10.322754-1.554199-2.517578-3.566406-3.776367-6.036133-3.776367-2.303711,0-4.391602.895508-6.265137,2.685547-1.873047,1.791016-3.628906,4.252441-5.266113,7.385254l-6.743652-14.099121c2.63623-5.146484,5.591797-9.049316,8.866699-11.707031,3.274414-2.656738,6.896484-3.986328,10.865234-3.986328Z"/>
      <path class="cls-1" d="M719.513672,16.532715c4.384766,0,8.055176,1.539551,11.01123,4.615723,2.955566,3.077637,5.175293,7.147949,6.660156,12.210449,1.484375,5.064453,2.227539,10.561523,2.227539,16.491211,0,4.699219-.395508,9.302246-1.186523,13.805176-.791016,4.504395-2.088867,9.260254-3.892578,14.266602-1.804199,5.007812-4.197754,10.561035-7.180664,16.658691-2.983887,6.099121-6.667969,13.091797-11.052734,20.980469h24.644531l-1.415527,20.225586h-38.340332v-18.798828c4.746094-9.231445,8.72168-17.175293,11.926758-23.833984,3.205566-6.657227,5.772461-12.405762,7.70166-17.246094,1.928223-4.838379,3.309082-9.132812,4.14209-12.881836.83252-3.748047,1.248535-7.356445,1.248535-10.826172,0-4.699707-.67334-8.419922-2.019043-11.161621-1.346191-2.740723-3.253906-4.112305-5.723633-4.112305-2.192871,0-4.094238.92334-5.703125,2.769531-1.609863,1.846191-3.164062,4.839844-4.662598,8.979492l-8.076172-12.252441c2.165039-6.04248,4.829102-10.868164,7.992676-14.476562,3.164062-3.608887,7.062988-5.413086,11.697754-5.413086Z"/>
      <path class="cls-1" d="M768.469727,138.472168l-12.48877-7.804688,21.522461-91.224121h-25.352051v-19.973633h38.67334v17.959473l-22.35498,101.042969Z"/>
      <path class="cls-1" d="M813.720215,18.546875c0-4.251465.755859-7.84668,2.269043-10.78418,1.512207-2.937012,3.378418-4.405762,5.599121-4.405762,2.247559,0,4.106934,1.46875,5.578125,4.405762,1.470703,2.9375,2.206055,6.532715,2.206055,10.78418,0,2.40625-.187012,4.923828-.561523,7.552734-.375,2.630859-1.062012,5.931152-2.061035,9.902832l-5.952637,24.925293h-7.410156l3.580078-29.708496c-.999023-1.45459-1.790039-3.230957-2.372559-5.329102-.583008-2.098145-.874512-4.544922-.874512-7.343262Z"/>
      <path class="cls-1" d="M869.960938,119.67334c2.191895,0,3.961426-.69873,5.307617-2.098145,1.345703-1.397461,2.019043-3.495605,2.019043-6.293945,0-1.901367-.26416-3.496094-.791016-4.783691-.527344-1.286133-1.540039-2.517578-3.039062-3.692383-1.498535-1.174805-3.719238-2.572754-6.660645-4.196289-4.052246-2.182129-7.347168-5.314453-9.886719-9.399414-2.539062-4.083008-3.809082-10.070801-3.809082-17.959473,0-7.943848,1.644531-14.518555,4.933105-19.72168s8.041016-7.804688,14.257812-7.804688c3.94043,0,7.375,1.021484,10.303223,3.062988,2.927734,2.042969,5.459961,4.630371,7.597168,7.762695l-5.245117,15.609863c-1.831543-2.293457-3.802734-4.125488-5.911133-5.49707-2.109375-1.370117-4.232422-2.056152-6.369141-2.056152-4.219238,0-6.327637,2.294922-6.327637,6.881836,0,1.510742.270508,2.811523.811523,3.902344s1.561035,2.210938,3.05957,3.356934c1.499023,1.147461,3.690918,2.55957,6.577637,4.238281,2.85791,1.623047,5.349121,3.49707,7.472168,5.622559,2.123047,2.126953,3.767578,4.96582,4.933105,8.518066,1.165527,3.553711,1.748535,8.23877,1.748535,14.057129,0,6.490723-.95752,11.931641-2.872559,16.323242-1.915039,4.392578-4.454102,7.678711-7.618164,9.86084-3.163574,2.181641-6.633301,3.272949-10.407227,3.272949-4.273926,0-8.04834-1.231445-11.322754-3.692871-3.274902-2.460938-6.064453-5.706543-8.367676-9.734863l6.619141-14.938477c1.720215,2.685547,3.669922,4.924316,5.848633,6.713867,2.178711,1.791504,4.558594,2.685547,7.139648,2.685547Z"/>
      <path class="cls-1" d="M990.185547,19.469727v74.439453c0,13.595703-2.019531,24.394043-6.056641,32.394043-4.038086,8.001465-9.749023,12.000977-17.130859,12.000977-3.71875,0-6.931152-.964844-9.637207-2.89502-2.706055-1.930664-5.307617-4.601562-7.805664-8.014648l5.203125-16.952637c1.970703,2.742188,3.816406,4.657715,5.537109,5.749023,1.720703,1.09082,3.677246,1.63623,5.870605,1.63623,2.96875,0,5.445312-1.915527,7.430664-5.748535,1.983398-3.831543,2.976562-9.777344,2.976562-17.833496v-54.633789h-17.734863v-20.141602h31.347168Z"/>
      <path class="cls-1" d="M1039.307617,110.106445c0,3.356934.229492,5.790527.6875,7.30127.458008,1.510254,1.200195,2.657715,2.226562,3.440918l-2.706055,17.455566c-2.608398-.503418-4.807617-1.665039-6.597656-3.48291-1.790039-1.817383-3.199219-4.57373-4.225586-8.266113-1.693359,4.084473-3.857422,7.120117-6.494141,9.105469s-5.328125,2.979492-8.076172,2.979492c-4.551758,0-8.179688-2.616211-10.885742-7.84668-2.706055-5.230957-4.058594-11.958984-4.058594-20.183594,0-9.678711,1.879883-17.147949,5.640625-22.407227,3.760742-5.258301,9.054688-7.888672,15.881836-7.888672h5.952148v-3.356934c0-9.118652-2.914062-13.679688-8.741211-13.679688-1.416016,0-3.233398.406738-5.454102,1.217285-2.220703.811523-4.44043,1.972168-6.660156,3.482422l-3.039062-17.623535c2.858398-2.182129,5.834961-3.831543,8.929688-4.95166,3.09375-1.118164,5.862305-1.678223,8.304688-1.678223,6.577148,0,11.44043,2.699707,14.59082,8.098633,3.149414,5.399902,4.724609,13.189941,4.724609,23.37207v34.912109ZM1018.660156,119.67334c1.415039,0,2.899414-.852051,4.454102-2.55957,1.553711-1.706055,2.733398-4.125,3.538086-7.259277v-14.43457h-3.24707c-3.663086,0-6.355469,1.132812-8.075195,3.398926-1.72168,2.265625-2.581055,5.580566-2.581055,9.944824,0,3.413086.520508,6.084473,1.560547,8.014648,1.041016,1.930176,2.491211,2.89502,4.350586,2.89502Z"/>
      <path class="cls-1" d="M1093.757812,46.660645l-14.736328,89.125977h-15.486328l-14.90332-89.125977h14.196289l8.617188,68.816895,8.991211-68.816895h13.321289Z"/>
      <path class="cls-1" d="M1139.216797,110.106445c0,3.356934.229492,5.790527.6875,7.30127.458008,1.510254,1.200195,2.657715,2.226562,3.440918l-2.706055,17.455566c-2.608398-.503418-4.807617-1.665039-6.597656-3.48291-1.790039-1.817383-3.199219-4.57373-4.225586-8.266113-1.693359,4.084473-3.857422,7.120117-6.494141,9.105469s-5.328125,2.979492-8.076172,2.979492c-4.551758,0-8.179688-2.616211-10.885742-7.84668-2.706055-5.230957-4.058594-11.958984-4.058594-20.183594,0-9.678711,1.879883-17.147949,5.640625-22.407227,3.760742-5.258301,9.054688-7.888672,15.881836-7.888672h5.952148v-3.356934c0-9.118652-2.914062-13.679688-8.741211-13.679688-1.416016,0-3.233398.406738-5.454102,1.217285-2.220703.811523-4.44043,1.972168-6.660156,3.482422l-3.039062-17.623535c2.858398-2.182129,5.834961-3.831543,8.929688-4.95166,3.09375-1.118164,5.862305-1.678223,8.304688-1.678223,6.577148,0,11.44043,2.699707,14.59082,8.098633,3.149414,5.399902,4.724609,13.189941,4.724609,23.37207v34.912109ZM1118.569336,119.67334c1.415039,0,2.899414-.852051,4.454102-2.55957,1.553711-1.706055,2.733398-4.125,3.538086-7.259277v-14.43457h-3.24707c-3.663086,0-6.355469,1.132812-8.075195,3.398926-1.72168,2.265625-2.581055,5.580566-2.581055,9.944824,0,3.413086.520508,6.084473,1.560547,8.014648,1.041016,1.930176,2.491211,2.89502,4.350586,2.89502Z"/>
      <path class="cls-1" d="M1219.061523,16.532715c4.384766,0,8.054688,1.539551,11.010742,4.615723,2.955078,3.077637,5.175781,7.147949,6.660156,12.210449,1.484375,5.064453,2.227539,10.561523,2.227539,16.491211,0,4.699219-.395508,9.302246-1.186523,13.805176-.791016,4.504395-2.088867,9.260254-3.892578,14.266602-1.803711,5.007812-4.198242,10.561035-7.180664,16.658691-2.983398,6.099121-6.667969,13.091797-11.052734,20.980469h24.644531l-1.415039,20.225586h-38.34082v-18.798828c4.746094-9.231445,8.72168-17.175293,11.926758-23.833984,3.205078-6.657227,5.772461-12.405762,7.701172-17.246094,1.928711-4.838379,3.30957-9.132812,4.142578-12.881836.832031-3.748047,1.249023-7.356445,1.249023-10.826172,0-4.699707-.673828-8.419922-2.019531-11.161621-1.34668-2.740723-3.253906-4.112305-5.723633-4.112305-2.192383,0-4.09375.92334-5.703125,2.769531-1.610352,1.846191-3.164062,4.839844-4.663086,8.979492l-8.075195-12.252441c2.164062-6.04248,4.828125-10.868164,7.992188-14.476562,3.164062-3.608887,7.0625-5.413086,11.698242-5.413086Z"/>
      <path class="cls-1" d="M1293.869141,77.041016c0,11.805176-.770508,21.540527-2.310547,29.205078-1.541016,7.665527-3.628906,13.637207-6.265625,17.91748-2.636719,4.279785-5.626953,7.288086-8.970703,9.021484-3.344727,1.734863-6.806641,2.601562-10.386719,2.601562h-15.569336V19.469727h14.570312c3.69043,0,7.264648.77002,10.719727,2.308105,3.455078,1.539551,6.548828,4.36377,9.283203,8.476074,2.733398,4.112305,4.905273,9.931641,6.514648,17.456055,1.609375,7.525391,2.415039,17.302246,2.415039,29.331055ZM1279.714844,77.041016c0-10.461914-.561523-18.379395-1.685547-23.750488s-2.651367-9.021484-4.579102-10.95166c-1.929688-1.930176-4.100586-2.895508-6.515625-2.895508h-2.914062v76.453613h2.914062c2.525391,0,4.746094-1.104004,6.661133-3.314941,1.915039-2.209473,3.413086-6.139648,4.496094-11.791016,1.082031-5.650391,1.623047-13.566895,1.623047-23.75Z"/>
      <path class="cls-1" d="M1373.046875,138.640137c-8.1875,0-14.438477-5.216309-18.753906-15.651855-4.31543-10.433594-6.473633-25.638184-6.473633-45.611816,0-13.203125,1.193359-24.323242,3.580078-33.359375,2.386719-9.034668,5.605469-15.874512,9.658203-20.519043,4.051758-4.643066,8.575195-6.965332,13.571289-6.965332,4.217773,0,7.769531,1.314941,10.65625,3.944336,2.886719,2.630371,5.454102,6.098633,7.702148,10.40625l-7.160156,14.938477c-1.749023-3.132812-3.428711-5.455078-5.037109-6.96582-1.610352-1.510742-3.442383-2.265625-5.495117-2.265625-2.581055,0-4.87793,1.384766-6.889648,4.153809-2.012695,2.769531-3.601562,7.162598-4.766602,13.175781-1.166016,6.015137-1.748047,13.889648-1.748047,23.624512,0,10.126953.408203,18.183594,1.227539,24.169434.818359,5.987305,2.060547,10.280762,3.725586,12.882324s3.774414,3.902344,6.328125,3.902344c1.359375,0,2.635742-.321289,3.829102-.964844,1.193359-.642578,2.303711-1.496582,3.331055-2.560059v-26.603027h-7.244141l-1.332031-19.302246h21.480469v57.822266c-2.886719,3.581543-5.987305,6.43457-9.303711,8.560547-3.316406,2.125488-6.945312,3.188965-10.885742,3.188965Z"/>
      <path class="cls-1" d="M1438.944336,110.106445c0,3.356934.229492,5.790527.6875,7.30127.458008,1.510254,1.200195,2.657715,2.226562,3.440918l-2.706055,17.455566c-2.608398-.503418-4.807617-1.665039-6.597656-3.48291-1.790039-1.817383-3.199219-4.57373-4.225586-8.266113-1.693359,4.084473-3.857422,7.120117-6.494141,9.105469s-5.328125,2.979492-8.076172,2.979492c-4.551758,0-8.179688-2.616211-10.885742-7.84668-2.706055-5.230957-4.058594-11.958984-4.058594-20.183594,0-9.678711,1.879883-17.147949,5.640625-22.407227,3.760742-5.258301,9.054688-7.888672,15.881836-7.888672h5.952148v-3.356934c0-9.118652-2.914062-13.679688-8.741211-13.679688-1.416016,0-3.233398.406738-5.454102,1.217285-2.220703.811523-4.44043,1.972168-6.660156,3.482422l-3.039062-17.623535c2.858398-2.182129,5.834961-3.831543,8.929688-4.95166,3.09375-1.118164,5.862305-1.678223,8.304688-1.678223,6.577148,0,11.44043,2.699707,14.59082,8.098633,3.149414,5.399902,4.724609,13.189941,4.724609,23.37207v34.912109ZM1418.296875,119.67334c1.415039,0,2.899414-.852051,4.454102-2.55957,1.553711-1.706055,2.733398-4.125,3.538086-7.259277v-14.43457h-3.24707c-3.663086,0-6.355469,1.132812-8.075195,3.398926-1.72168,2.265625-2.581055,5.580566-2.581055,9.944824,0,3.413086.520508,6.084473,1.560547,8.014648,1.041016,1.930176,2.491211,2.89502,4.350586,2.89502Z"/>
      <path class="cls-1" d="M1484.362305,43.723633c3.135742,0,5.459961,2.056152,6.972656,6.168457,1.512695,4.111816,2.268555,10.756348,2.268555,19.931152v65.963379h-11.28125v-62.941895c0-3.132812-.145508-5.342285-.436523-6.629883-.291992-1.286621-.881836-1.930176-1.769531-1.930176-.694336,0-1.40918.40625-2.144531,1.216797-.735352.811523-1.546875,2.336914-2.43457,4.57373v65.711426h-9.242188v-62.941895c0-3.132812-.145508-5.342285-.436523-6.629883-.291992-1.286621-.881836-1.930176-1.769531-1.930176-.694336,0-1.40918.40625-2.143555,1.216797-.736328.811523-1.547852,2.336914-2.435547,4.57373v65.711426h-11.448242V46.660645h9.658203l.874023,8.644043c1.387695-3.803711,2.789062-6.68457,4.205078-8.644043,1.415039-1.95752,3.09375-2.937012,5.037109-2.937012,1.665039,0,3.086914.853516,4.266602,2.55957,1.179688,1.70752,2.018555,4.378418,2.518555,8.014648,1.332031-3.132812,2.802734-5.677734,4.413086-7.637207,1.608398-1.95752,3.384766-2.937012,5.328125-2.937012Z"/>
      <path class="cls-1" d="M1513.044922,98.944824c.443359,7.273438,1.623047,12.491211,3.538086,15.651367,1.915039,3.161621,4.273438,4.741699,7.077148,4.741699,2.025391,0,3.982422-.671387,5.870117-2.01416,1.886719-1.342773,3.705078-3.132812,5.453125-5.371094l5.287109,14.43457c-2.082031,3.581055-4.600586,6.518555-7.555664,8.812012-2.956055,2.293457-6.321289,3.440918-10.095703,3.440918-5.050781,0-9.283203-2.028809-12.696289-6.084473-3.414062-4.055664-5.981445-9.636719-7.701172-16.742676-1.72168-7.104492-2.581055-15.273926-2.581055-24.505371,0-8.783203.832031-16.77002,2.49707-23.959961,1.666016-7.188477,4.100586-12.923828,7.306641-17.204102,3.205078-4.279785,7.125-6.419922,11.759766-6.419922,4.217773,0,7.874023,1.818848,10.969727,5.455078,3.09375,3.637207,5.494141,8.868164,7.201172,15.693359,1.707031,6.82666,2.560547,15.021973,2.560547,24.589355,0,1.510742-.021484,3.133789-.0625,4.867676-.041992,1.734375-.104492,3.272949-.1875,4.615723h-28.640625ZM1521.204102,61.515137c-2.359375,0-4.260742,1.70752-5.703125,5.119141-1.443359,3.413574-2.317383,8.868164-2.623047,16.365234h16.235352c-.027344-6.489746-.652344-11.692871-1.873047-15.609863-1.22168-3.915527-3.233398-5.874512-6.036133-5.874512Z"/>
      <path class="cls-1" d="M1617.117188,39.10791v27.946289h19.981445v19.302246h-19.981445v29.708496h24.102539v19.72168h-37.756836V19.469727h37.71582l-1.374023,19.638184h-22.6875Z"/>
      <path class="cls-1" d="M1651.501953,135.786621V46.660645h11.489258l.916016,10.322754c1.970703-4.475586,4.051758-7.804688,6.244141-9.986816s4.69043-3.272949,7.493164-3.272949c3.774414,0,6.744141,2.322266,8.90918,6.965332,2.164062,4.644531,3.24707,11.190918,3.24707,19.638184v65.459473h-13.155273v-57.822754c0-5.482422-.297852-9.300781-.894531-11.455566-.597656-2.152832-1.713867-3.230957-3.351562-3.230957-1.387695,0-2.712891.895996-3.975586,2.685547-1.262695,1.791504-2.518555,4.280273-3.767578,7.469238v62.354492h-13.154297Z"/>
      <path class="cls-1" d="M1740.712891,32.394043l3.081055,19.470215c-1.554688,1.230957-3.37207,2.126465-5.454102,2.685059-2.081055.560059-4.509766.839355-7.285156.839355,2.775391,2.40625,4.891602,5.385742,6.348633,8.937988,1.457031,3.553711,2.185547,8.211426,2.185547,13.973145,0,5.763184-.763672,10.896484-2.289062,15.399414-1.527344,4.504395-3.691406,8.043457-6.494141,10.616211-2.803711,2.574219-6.120117,3.86084-9.949219,3.86084-1.832031,0-3.539062-.335938-5.121094-1.007324-.47168.503418-.832031,1.231445-1.082031,2.182129-.25.952148-.375,1.930176-.375,2.937012,0,1.399414.28418,2.658203.853516,3.776855.568359,1.119629,1.908203,1.678223,4.017578,1.678223h7.243164c3.441406,0,6.416992,1.120117,8.929688,3.356934,2.510742,2.238281,4.460938,5.287109,5.848633,9.147461,1.387695,3.86084,2.081055,8.279785,2.081055,13.259766,0,9.118652-1.984375,16.308594-5.952148,21.568359-3.969727,5.258301-9.866211,7.888672-17.692383,7.888672-5.662109,0-10.040039-1.161621-13.133789-3.48291-3.095703-2.322266-5.246094-5.622559-6.453125-9.902832-1.207031-4.279785-1.810547-9.357422-1.810547-15.231934h11.65625c0,2.572754.255859,4.685059.769531,6.336426.513672,1.649414,1.499023,2.866211,2.956055,3.650391,1.457031.782715,3.573242,1.174805,6.348633,1.174805,2.802734,0,4.939453-.448242,6.410156-1.342773,1.470703-.895508,2.477539-2.112305,3.018555-3.650391.541016-1.539551.811523-3.259766.811523-5.161133,0-2.630859-.513672-4.756348-1.540039-6.378418-1.027344-1.623047-2.650391-2.433594-4.870117-2.433594h-7.036133c-4.773438,0-8.242188-1.775391-10.407227-5.329102-2.164062-3.552246-3.24707-7.706543-3.24707-12.462402,0-3.300781.4375-6.433105,1.311523-9.399414.874023-2.964844,2.102539-5.455078,3.68457-7.469238-2.831055-3.020996-4.857422-6.587891-6.078125-10.700195-1.22168-4.112305-1.832031-9.049316-1.832031-14.812012,0-6.713867.84668-12.490234,2.540039-17.330078,1.692383-4.838867,4.030273-8.573242,7.014648-11.203613,2.982422-2.629395,6.389648-3.944336,10.219727-3.944336,3.301758.112793,6.174805-.349121,8.617188-1.384766,2.441406-1.034668,4.633789-2.461426,6.577148-4.280273,1.942383-1.817383,3.801758-3.762207,5.578125-5.83252ZM1720.273438,61.095703c-2.082031,0-3.733398,1.32959-4.954102,3.986328-1.22168,2.657715-1.832031,6.308594-1.832031,10.95166,0,4.923828.625,8.700684,1.874023,11.32959,1.249023,2.630371,2.885742,3.944336,4.912109,3.944336,4.496094,0,6.744141-5.203125,6.744141-15.609375,0-9.735352-2.248047-14.602539-6.744141-14.602539Z"/>
      <path class="cls-1" d="M1778.427734,46.660645v70.998535h11.240234v18.127441h-36.924805v-18.127441h12.530273v-52.871094h-12.114258v-18.127441h25.268555ZM1770.477539,0c2.274414,0,4.134766,1.426758,5.578125,4.279785,1.442383,2.853516,2.164062,6.407227,2.164062,10.658203,0,4.252441-.72168,7.819336-2.164062,10.700195-1.443359,2.882324-3.303711,4.322266-5.578125,4.322266-2.304688,0-4.18457-1.439941-5.641602-4.322266-1.457031-2.880859-2.185547-6.447754-2.185547-10.700195,0-4.250977.728516-7.804688,2.185547-10.658203,1.457031-2.853027,3.336914-4.279785,5.641602-4.279785Z"/>
      <path class="cls-1" d="M1801.366211,135.786621V46.660645h11.489258l.916016,10.322754c1.970703-4.475586,4.051758-7.804688,6.244141-9.986816s4.69043-3.272949,7.493164-3.272949c3.774414,0,6.744141,2.322266,8.90918,6.965332,2.164062,4.644531,3.24707,11.190918,3.24707,19.638184v65.459473h-13.155273v-57.822754c0-5.482422-.297852-9.300781-.894531-11.455566-.597656-2.152832-1.713867-3.230957-3.351562-3.230957-1.387695,0-2.712891.895996-3.975586,2.685547-1.262695,1.791504-2.518555,4.280273-3.767578,7.469238v62.354492h-13.154297Z"/>
      <path class="cls-1" d="M1862.727539,98.944824c.443359,7.273438,1.623047,12.491211,3.538086,15.651367,1.915039,3.161621,4.273438,4.741699,7.077148,4.741699,2.025391,0,3.982422-.671387,5.870117-2.01416,1.886719-1.342773,3.705078-3.132812,5.453125-5.371094l5.287109,14.43457c-2.082031,3.581055-4.600586,6.518555-7.555664,8.812012-2.956055,2.293457-6.321289,3.440918-10.095703,3.440918-5.050781,0-9.283203-2.028809-12.696289-6.084473-3.414062-4.055664-5.981445-9.636719-7.701172-16.742676-1.72168-7.104492-2.581055-15.273926-2.581055-24.505371,0-8.783203.832031-16.77002,2.49707-23.959961,1.666016-7.188477,4.100586-12.923828,7.306641-17.204102,3.205078-4.279785,7.125-6.419922,11.759766-6.419922,4.217773,0,7.874023,1.818848,10.969727,5.455078,3.09375,3.637207,5.494141,8.868164,7.201172,15.693359,1.707031,6.82666,2.560547,15.021973,2.560547,24.589355,0,1.510742-.021484,3.133789-.0625,4.867676-.041992,1.734375-.104492,3.272949-.1875,4.615723h-28.640625ZM1870.886719,61.515137c-2.359375,0-4.260742,1.70752-5.703125,5.119141-1.443359,3.413574-2.317383,8.868164-2.623047,16.365234h16.235352c-.027344-6.489746-.652344-11.692871-1.873047-15.609863-1.22168-3.915527-3.233398-5.874512-6.036133-5.874512Z"/>
    </g>
  </g>
</svg>