<?xml version="1.0" encoding="UTF-8"?>
<svg id="Layer_2" data-name="Layer 2" xmlns="http://www.w3.org/2000/svg" version="1.1" viewBox="0 0 1891.6 173">
  <defs>
    <style>
      .cls-1 {
        fill: #000;
      }

      .cls-1, .cls-2 {
        stroke-width: 0px;
      }

      .cls-2 {
        fill: #fff;
      }
    </style>
  </defs>
  <g id="Layer_1-2" data-name="Layer 1-2">
    <g>
      <g>
        <path class="cls-1" d="M26.8,139.1c-5.3,0-10.1-2.4-14.3-7.2-4.1-4.7-7.3-11.7-9.6-20.9-2.3-9.1-3.4-20.4-3.4-33.7s1.2-24.1,3.6-33.2c2.4-9.1,5.7-16.1,9.8-20.9,4.2-4.8,8.9-7.3,14.1-7.3s7.9,1.1,10.9,3.4c2.9,2.2,5.7,5.4,8.1,9.5,0,.1,0,.3,0,.4l-6.7,16.3c0,.2-.2.3-.4.3,0,0,0,0,0,0-.2,0-.3,0-.4-.2-1.5-2.6-3.3-4.6-5.1-6.1-1.8-1.5-3.8-2.2-5.9-2.2s-4.3,1.3-6.2,3.9c-1.9,2.7-3.5,7-4.7,12.9-1.2,5.9-1.8,13.7-1.8,23.1,0,13.9,1.3,24.1,3.7,30.3,2.4,6.1,5.5,9.2,9.2,9.2s5-1,6.8-3.1c1.9-2.2,3.7-4.5,5.2-7.1,0-.1.3-.2.4-.2s0,0,0,0c.2,0,.4.1.4.3l6.2,15.9c0,.1,0,.3,0,.4-2.2,4.3-4.9,8.1-8.1,11.2-3.2,3.2-7.2,4.8-11.8,4.8Z"/>
        <path class="cls-2" d="M27,16.5c4.1,0,7.7,1.1,10.6,3.3,2.9,2.2,5.6,5.3,8,9.4l-6.7,16.3c-1.6-2.6-3.3-4.7-5.2-6.3-1.9-1.5-4-2.3-6.2-2.3s-4.6,1.4-6.6,4.2c-2,2.8-3.6,7.1-4.8,13.1-1.2,6-1.8,13.7-1.8,23.2,0,14,1.3,24.2,3.8,30.5,2.5,6.4,5.7,9.5,9.7,9.5s5.3-1.1,7.2-3.3c1.9-2.2,3.7-4.6,5.3-7.1l6.2,15.9c-2.2,4.3-4.8,8-8,11.1-3.2,3.1-7,4.6-11.4,4.6s-9.8-2.3-13.9-7c-4-4.7-7.2-11.6-9.5-20.6-2.3-9.1-3.4-20.3-3.4-33.6s1.2-24,3.6-33.1c2.4-9.1,5.6-16,9.7-20.7,4.1-4.7,8.7-7.1,13.7-7.1M27,15.5c-5.4,0-10.2,2.5-14.5,7.4-4.2,4.8-7.5,11.9-9.9,21.1C.2,53.2-1,64.4-1,77.4s1.2,24.7,3.5,33.9c2.3,9.2,5.6,16.3,9.7,21.1,4.2,4.9,9.1,7.4,14.6,7.4s8.8-1.6,12.1-4.9c3.2-3.1,6-7,8.2-11.3.1-.3.1-.5,0-.8l-6.2-15.9c-.1-.4-.5-.6-.8-.6,0,0,0,0,0,0-.3,0-.7.2-.8.5-1.6,2.5-3.3,4.9-5.2,7-1.7,2-3.8,2.9-6.5,2.9s-6.4-3-8.7-8.9c-2.5-6.2-3.7-16.3-3.7-30.1s.6-17.1,1.8-23c1.2-5.8,2.7-10.1,4.6-12.7,1.8-2.5,3.7-3.7,5.8-3.7s3.9.7,5.6,2.1c1.8,1.5,3.5,3.5,5,6,.2.3.5.5.9.5s0,0,0,0c.4,0,.7-.3.8-.6l6.7-16.3c.1-.3,0-.6,0-.9-2.5-4.1-5.2-7.4-8.2-9.6-3.1-2.3-6.8-3.5-11.2-3.5h0Z"/>
      </g>
      <g>
        <path class="cls-1" d="M78.1,136.3c-.3,0-.5-.2-.5-.5v-58.1c0-5.3-.3-9-.9-11.1-.5-1.9-1.5-2.8-2.9-2.8s-2.4.9-3.6,2.7c-1.2,1.9-2.5,4.5-3.7,7.7v61.6c0,.3-.2.5-.5.5h-13.2c-.3,0-.5-.2-.5-.5V11.2c0-.2.2-.4.4-.5l13.2-2.6s0,0,0,0c.1,0,.2,0,.3.1.1,0,.2.2.2.4v44.7c3.6-6.7,7.8-10.1,12.5-10.1s7.3,2.4,9.5,7.3c2.1,4.7,3.2,11.4,3.2,19.8v65.5c0,.3-.2.5-.5.5h-13.2Z"/>
        <path class="cls-2" d="M66.1,8.6v46.8c3.7-7.8,8-11.7,13-11.7s7,2.3,9,7c2.1,4.6,3.1,11.2,3.1,19.6v65.5h-13.2v-58.1c0-5.4-.3-9.1-.9-11.2-.6-2.1-1.7-3.2-3.4-3.2s-2.7,1-4,2.9c-1.3,1.9-2.5,4.6-3.8,7.9v61.7h-13.2V11.2l13.2-2.6M66.1,7.6c0,0-.1,0-.2,0l-13.2,2.6c-.5,0-.8.5-.8,1v124.5c0,.6.4,1,1,1h13.2c.6,0,1-.4,1-1v-61.5c1.2-3.2,2.4-5.7,3.6-7.6,1.1-1.6,2.1-2.4,3.1-2.4s1.8.3,2.4,2.5c.6,2,.9,5.7.9,11v58.1c0,.6.4,1,1,1h13.2c.6,0,1-.4,1-1v-65.5c0-8.6-1.1-15.3-3.2-20-2.2-5-5.6-7.6-9.9-7.6s-8.5,2.9-12,8.7V8.6c0-.3-.1-.6-.4-.8-.2-.1-.4-.2-.6-.2h0Z"/>
      </g>
      <g>
        <path class="cls-1" d="M104.2,136.3c-.3,0-.5-.2-.5-.5v-18.1c0-.3.2-.5.5-.5h12v-51.9h-11.6c-.3,0-.5-.2-.5-.5v-18.1c0-.3.2-.5.5-.5h25.3c.3,0,.5.2.5.5v70.5h10.7c.3,0,.5.2.5.5v18.1c0,.3-.2.5-.5.5h-36.9ZM122,30.5c-2.5,0-4.5-1.5-6.1-4.6-1.5-2.9-2.2-6.6-2.2-10.9s.8-8,2.2-10.9c1.5-3,3.6-4.6,6.1-4.6s4.5,1.5,6,4.6c1.5,2.9,2.2,6.6,2.2,10.9s-.7,8-2.2,10.9c-1.5,3.1-3.6,4.6-6,4.6Z"/>
        <path class="cls-2" d="M122,0C124.2,0,126.1,1.4,127.6,4.3c1.4,2.9,2.2,6.4,2.2,10.7s-.7,7.8-2.2,10.7c-1.4,2.9-3.3,4.3-5.6,4.3s-4.2-1.4-5.6-4.3c-1.5-2.9-2.2-6.4-2.2-10.7s.7-7.8,2.2-10.7C117.8,1.4,119.7,0,122,0M129.9,46.7v71h11.2v18.1h-36.9v-18.1h12.5v-52.9h-12.1v-18.1h25.3M122-1c-2.7,0-4.9,1.6-6.5,4.8-1.5,3-2.3,6.7-2.3,11.1s.8,8.1,2.3,11.2c1.6,3.2,3.8,4.9,6.5,4.9s4.9-1.6,6.5-4.9c1.5-3,2.3-6.8,2.3-11.1s-.8-8.1-2.3-11.1c-1.6-3.2-3.8-4.8-6.5-4.8h0ZM129.9,45.7h-25.3c-.6,0-1,.4-1,1v18.1c0,.6.4,1,1,1h11.1v50.9h-11.5c-.6,0-1,.4-1,1v18.1c0,.6.4,1,1,1h36.9c.6,0,1-.4,1-1v-18.1c0-.6-.4-1-1-1h-10.2V46.7c0-.6-.4-1-1-1h0Z"/>
      </g>
      <g>
        <path class="cls-1" d="M164.9,139.1c-4.7,0-8.5-2.7-11.3-8.1-2.7-5.3-4.1-12.1-4.1-20.4s1.9-17.4,5.7-22.7c3.8-5.4,9.3-8.1,16.3-8.1h5.5v-2.9c0-8.9-2.7-13.2-8.2-13.2s-3.1.4-5.3,1.2c-2.2.8-4.4,1.9-6.6,3.4,0,0-.2,0-.3,0s-.1,0-.2,0c-.2,0-.3-.2-.3-.4l-3-17.6c0-.2,0-.4.2-.5,2.9-2.2,5.9-3.9,9.1-5,3.1-1.1,6-1.7,8.5-1.7,6.7,0,11.8,2.8,15,8.3,3.2,5.5,4.8,13.4,4.8,23.6v34.9c0,3.3.2,5.7.7,7.2.4,1.4,1.1,2.5,2.1,3.2.1.1.2.3.2.5l-2.7,17.5c0,.1,0,.3-.2.3,0,0-.2,0-.3,0s0,0,0,0c-2.7-.5-5-1.7-6.9-3.6-1.6-1.6-3-4.1-4-7.2-1.6,3.5-3.7,6.2-6.1,8.1-2.7,2-5.5,3.1-8.4,3.1ZM174.2,95.9c-3.5,0-6.1,1.1-7.7,3.2-1.6,2.2-2.5,5.4-2.5,9.6s.5,5.9,1.5,7.8c1,1.8,2.2,2.6,3.9,2.6s2.6-.8,4.1-2.4c1.5-1.6,2.6-4,3.4-7v-13.9h-2.7Z"/>
        <path class="cls-2" d="M170.8,43.7c6.6,0,11.4,2.7,14.6,8.1,3.1,5.4,4.7,13.2,4.7,23.4v34.9c0,3.4.2,5.8.7,7.3.5,1.5,1.2,2.7,2.2,3.4l-2.7,17.5c-2.6-.5-4.8-1.7-6.6-3.5-1.8-1.8-3.2-4.6-4.2-8.3-1.7,4.1-3.9,7.1-6.5,9.1-2.6,2-5.3,3-8.1,3-4.6,0-8.2-2.6-10.9-7.8-2.7-5.2-4.1-12-4.1-20.2s1.9-17.1,5.6-22.4c3.8-5.3,9.1-7.9,15.9-7.9h6v-3.4c0-9.1-2.9-13.7-8.7-13.7s-3.2.4-5.5,1.2c-2.2.8-4.4,2-6.7,3.5l-3-17.6c2.9-2.2,5.8-3.8,8.9-5,3.1-1.1,5.9-1.7,8.3-1.7M169.4,119.7c1.4,0,2.9-.9,4.5-2.6,1.6-1.7,2.7-4.1,3.5-7.3v-14.4h-3.2c-3.7,0-6.4,1.1-8.1,3.4-1.7,2.3-2.6,5.6-2.6,9.9s.5,6.1,1.6,8c1,1.9,2.5,2.9,4.4,2.9M170.8,42.7c-2.5,0-5.5.6-8.6,1.7-3.2,1.2-6.3,2.9-9.2,5.1-.3.2-.4.6-.4,1l3,17.6c0,.3.3.6.6.8.1,0,.3,0,.4,0,.2,0,.4,0,.6-.2,2.1-1.5,4.3-2.6,6.4-3.4,2.1-.8,3.8-1.2,5.1-1.2,5.2,0,7.7,4.1,7.7,12.7v2.4h-5c-7.1,0-12.8,2.8-16.7,8.3-3.9,5.4-5.8,13.1-5.8,23s1.4,15.3,4.2,20.6c2.9,5.6,6.8,8.4,11.8,8.4s5.9-1.1,8.7-3.2c2.2-1.7,4.1-4.1,5.7-7.2,1,2.6,2.2,4.7,3.7,6.2,1.9,2,4.3,3.2,7.1,3.8,0,0,.1,0,.2,0,.2,0,.4,0,.6-.2.2-.2.4-.4.4-.7l2.7-17.5c0-.4,0-.7-.4-.9-.9-.6-1.5-1.6-1.9-2.9-.4-1.4-.6-3.8-.6-7v-34.9c0-10.3-1.6-18.3-4.9-23.9-3.3-5.7-8.5-8.6-15.5-8.6h0ZM169.4,118.7c-1.5,0-2.6-.8-3.5-2.4-1-1.8-1.4-4.3-1.4-7.5s.8-7.3,2.4-9.3c1.5-2,3.9-3,7.3-3h2.2v13.3c-.8,2.9-1.9,5.2-3.3,6.7-1.3,1.5-2.6,2.2-3.7,2.2h0Z"/>
      </g>
      <g>
        <path class="cls-1" d="M228,136.3c-.3,0-.5-.2-.5-.5v-57.8c0-5.4-.3-9.2-.9-11.3-.5-1.9-1.5-2.9-2.9-2.9s-2.4.8-3.6,2.5c-1.2,1.7-2.5,4.2-3.7,7.3v62.3c0,.3-.2.5-.5.5h-13.2c-.3,0-.5-.2-.5-.5V46.7c0-.3.2-.5.5-.5h11.5c.3,0,.5.2.5.5l.7,8.4c1.8-3.7,3.6-6.5,5.6-8.4,2.3-2.3,4.9-3.4,7.8-3.4s7.1,2.4,9.4,7.3c2.2,4.7,3.3,11.4,3.3,19.8v65.5c0,.3-.2.5-.5.5h-13.2Z"/>
        <path class="cls-2" d="M229,43.7c3.8,0,6.7,2.3,8.9,7,2.2,4.6,3.2,11.2,3.2,19.6v65.5h-13.2v-57.8c0-5.5-.3-9.3-.9-11.5-.6-2.2-1.7-3.2-3.4-3.2s-2.7.9-4,2.7c-1.3,1.8-2.5,4.3-3.8,7.5v62.4h-13.2V46.7h11.5l.9,10.3c2-4.5,4.1-7.8,6.2-10,2.2-2.2,4.7-3.3,7.5-3.3M229,42.7c-3.1,0-5.8,1.2-8.2,3.6-1.7,1.7-3.3,4-4.9,7l-.6-6.7c0-.5-.5-.9-1-.9h-11.5c-.6,0-1,.4-1,1v89.1c0,.6.4,1,1,1h13.2c.6,0,1-.4,1-1v-62.2c1.2-3,2.4-5.4,3.6-7.1,1.1-1.5,2.1-2.3,3.2-2.3s1.8.3,2.4,2.5c.6,2.1.9,5.8.9,11.2v57.8c0,.6.4,1,1,1h13.2c.6,0,1-.4,1-1v-65.5c0-8.6-1.1-15.3-3.3-20.1-2.3-5-5.6-7.5-9.8-7.5h0Z"/>
      </g>
      <g>
        <path class="cls-1" d="M270.9,173.5c-5.7,0-10.3-1.2-13.4-3.6-3.2-2.4-5.4-5.8-6.6-10.2-1.2-4.3-1.8-9.5-1.8-15.4s.2-.5.5-.5h11.7c.3,0,.5.2.5.5,0,2.5.3,4.6.7,6.2.5,1.5,1.4,2.6,2.7,3.4,1.4.7,3.4,1.1,6.1,1.1s4.8-.4,6.2-1.3c1.4-.8,2.3-2,2.8-3.4.5-1.5.8-3.2.8-5s-.5-4.6-1.5-6.1c-.9-1.5-2.4-2.2-4.4-2.2h-7c-4.9,0-8.6-1.9-10.8-5.6-2.2-3.6-3.3-7.9-3.3-12.7s.4-6.5,1.3-9.5c.8-2.8,2-5.3,3.5-7.3-2.7-3-4.7-6.6-5.9-10.6-1.2-4.1-1.9-9.2-1.9-15s.9-12.6,2.6-17.5c1.7-4.9,4.1-8.7,7.2-11.4,3.1-2.7,6.6-4.1,10.6-4.1.3,0,.6,0,1,0,2.8,0,5.3-.5,7.5-1.4,2.4-1,4.5-2.4,6.4-4.2,1.9-1.8,3.8-3.7,5.5-5.8,0-.1.2-.2.4-.2s0,0,.1,0c.2,0,.3.2.4.4l3.1,19.5c0,.2,0,.4-.2.5-1.6,1.3-3.5,2.2-5.6,2.8-1.8.5-3.9.8-6.2.8,2.4,2.3,4.2,5.1,5.5,8.3,1.5,3.6,2.2,8.4,2.2,14.2s-.8,11-2.3,15.6c-1.5,4.6-3.8,8.2-6.6,10.8-2.9,2.6-6.3,4-10.3,4s-3.4-.3-5-.9c-.3.4-.6,1-.7,1.7-.2.9-.4,1.8-.4,2.8s.3,2.5.8,3.5c.5.9,1.7,1.4,3.6,1.4h7.2c3.5,0,6.7,1.2,9.3,3.5,2.6,2.3,4.6,5.4,6,9.4,1.4,3.9,2.1,8.4,2.1,13.4,0,9.2-2,16.5-6.1,21.9-4.1,5.4-10.1,8.1-18.1,8.1ZM271.6,61.6c-1.9,0-3.4,1.2-4.5,3.7-1.2,2.6-1.8,6.2-1.8,10.7s.6,8.6,1.8,11.1c1.2,2.5,2.6,3.7,4.5,3.7,4.1,0,6.2-5.1,6.2-15.1s-2.1-14.1-6.2-14.1Z"/>
        <path class="cls-2" d="M292,32.4l3.1,19.5c-1.6,1.2-3.4,2.1-5.5,2.7-2.1.6-4.5.8-7.3.8,2.8,2.4,4.9,5.4,6.3,8.9,1.5,3.6,2.2,8.2,2.2,14s-.8,10.9-2.3,15.4c-1.5,4.5-3.7,8-6.5,10.6-2.8,2.6-6.1,3.9-9.9,3.9s-3.5-.3-5.1-1c-.5.5-.8,1.2-1.1,2.2-.2,1-.4,1.9-.4,2.9s.3,2.7.9,3.8c.6,1.1,1.9,1.7,4,1.7h7.2c3.4,0,6.4,1.1,8.9,3.4,2.5,2.2,4.5,5.3,5.8,9.1,1.4,3.9,2.1,8.3,2.1,13.3,0,9.1-2,16.3-6,21.6-4,5.3-9.9,7.9-17.7,7.9s-10-1.2-13.1-3.5c-3.1-2.3-5.2-5.6-6.5-9.9-1.2-4.3-1.8-9.4-1.8-15.2h11.7c0,2.6.3,4.7.8,6.3.5,1.6,1.5,2.9,3,3.7,1.5.8,3.6,1.2,6.3,1.2s4.9-.4,6.4-1.3c1.5-.9,2.5-2.1,3-3.7.5-1.5.8-3.3.8-5.2s-.5-4.8-1.5-6.4c-1-1.6-2.7-2.4-4.9-2.4h-7c-4.8,0-8.2-1.8-10.4-5.3-2.2-3.6-3.2-7.7-3.2-12.5s.4-6.4,1.3-9.4c.9-3,2.1-5.5,3.7-7.5-2.8-3-4.9-6.6-6.1-10.7-1.2-4.1-1.8-9-1.8-14.8s.8-12.5,2.5-17.3c1.7-4.8,4-8.6,7-11.2,3-2.6,6.4-3.9,10.2-3.9.3,0,.6,0,1,0,2.9,0,5.5-.5,7.7-1.4,2.4-1,4.6-2.5,6.6-4.3,1.9-1.8,3.8-3.8,5.6-5.8M271.6,91.3c4.5,0,6.7-5.2,6.7-15.6s-2.2-14.6-6.7-14.6-3.7,1.3-5,4c-1.2,2.7-1.8,6.3-1.8,11s.6,8.7,1.9,11.3c1.2,2.6,2.9,3.9,4.9,3.9M292,31.4c-.3,0-.6.1-.8.3-1.7,2-3.6,4-5.5,5.8-1.8,1.7-4,3.1-6.3,4.1-2.1.9-4.5,1.3-7.3,1.3s-.6,0-.9,0h0c-4.1,0-7.8,1.4-10.9,4.2-3.1,2.7-5.6,6.6-7.3,11.6-1.7,4.9-2.6,10.9-2.6,17.7s.6,10.9,1.9,15.1c1.2,4,3.1,7.5,5.7,10.5-1.4,2-2.5,4.4-3.3,7.1-.9,3-1.4,6.3-1.4,9.7,0,4.9,1.1,9.3,3.4,13,2.3,3.9,6.1,5.8,11.3,5.8h7c1.9,0,3.2.6,4,2,.9,1.5,1.4,3.4,1.4,5.8s-.3,3.4-.8,4.8c-.5,1.3-1.3,2.3-2.6,3.1-1.3.8-3.3,1.2-5.9,1.2s-4.6-.4-5.9-1.1c-1.2-.7-2-1.7-2.5-3.1-.5-1.5-.7-3.6-.7-6s-.4-1-1-1h-11.7c-.6,0-1,.4-1,1,0,5.9.6,11.2,1.8,15.5,1.3,4.5,3.6,8,6.8,10.4,3.3,2.4,7.9,3.7,13.7,3.7s14.3-2.8,18.5-8.3c4.1-5.4,6.2-12.9,6.2-22.2s-.7-9.6-2.1-13.6c-1.4-4-3.5-7.2-6.1-9.6-2.7-2.4-5.9-3.6-9.6-3.6h-7.2c-1.7,0-2.7-.4-3.1-1.1-.5-1-.7-2.1-.7-3.3s.1-1.8.3-2.7c.1-.5.3-.9.5-1.2,1.5.5,3.1.8,4.8.8,4.1,0,7.6-1.4,10.6-4.1,2.9-2.7,5.2-6.4,6.8-11,1.6-4.6,2.3-9.9,2.3-15.7s-.8-10.7-2.3-14.4c-1.2-2.9-2.8-5.5-4.9-7.6,1.9-.1,3.6-.4,5.1-.8,2.2-.6,4.2-1.6,5.8-2.9.3-.2.4-.6.4-.9l-3.1-19.5c0-.4-.3-.7-.7-.8,0,0-.2,0-.3,0h0ZM271.6,90.3c-1.6,0-2.9-1.1-4-3.4-1.2-2.5-1.8-6.1-1.8-10.9s.6-8,1.7-10.5c1.1-2.3,2.4-3.4,4-3.4,3.8,0,5.7,4.6,5.7,13.6s-1.9,14.6-5.7,14.6h0Z"/>
      </g>
      <g>
        <path class="cls-1" d="M331.7,136.3c-.2,0-.4-.2-.5-.4l-15.3-59.9v59.8c0,.3-.2.5-.5.5h-13.7c-.3,0-.5-.2-.5-.5V19.5c0-.3.2-.5.5-.5h13.7c.3,0,.5.2.5.5v52.1l15.2-52.3c0-.2.3-.4.5-.4h14.3c.2,0,.3,0,.4.2,0,.1.1.3,0,.4l-16.3,52.1,17.9,64c0,.2,0,.3,0,.4,0,.1-.2.2-.4.2h-15.8Z"/>
        <path class="cls-2" d="M346,19.5l-16.3,52.2,17.9,64.1h-15.8l-15.9-62.1,15.8-54.2h14.3M315.5,19.5v116.3h-13.7V19.5h13.7M346,18.5h-14.3c-.4,0-.8.3-1,.7l-14.2,48.9V19.5c0-.6-.4-1-1-1h-13.7c-.6,0-1,.4-1,1v116.3c0,.6.4,1,1,1h13.7c.6,0,1-.4,1-1v-55.8l14.3,56c.1.4.5.8,1,.8h15.8c.3,0,.6-.1.8-.4.2-.2.3-.6.2-.9l-17.8-63.8,16.2-51.9c0-.3,0-.6-.1-.9-.2-.3-.5-.4-.8-.4h0ZM346,20.5h0,0Z"/>
      </g>
      <g>
        <path class="cls-1" d="M364.7,139.1c-4.7,0-8.5-2.7-11.3-8.1-2.7-5.3-4.1-12.1-4.1-20.4s1.9-17.4,5.7-22.7c3.8-5.4,9.3-8.1,16.3-8.1h5.5v-2.9c0-8.9-2.7-13.2-8.2-13.2s-3.1.4-5.3,1.2c-2.2.8-4.4,1.9-6.6,3.4,0,0-.2,0-.3,0s-.1,0-.2,0c-.2,0-.3-.2-.3-.4l-3-17.6c0-.2,0-.4.2-.5,2.9-2.2,5.9-3.9,9.1-5,3.1-1.1,6-1.7,8.5-1.7,6.7,0,11.8,2.8,15,8.3,3.2,5.5,4.8,13.4,4.8,23.6v34.9c0,3.3.2,5.7.7,7.2.4,1.4,1.1,2.5,2.1,3.2.1.1.2.3.2.5l-2.7,17.5c0,.1,0,.3-.2.3,0,0-.2,0-.3,0s0,0,0,0c-2.7-.5-5-1.7-6.9-3.6-1.6-1.6-3-4.1-4-7.2-1.6,3.5-3.7,6.2-6.1,8.1-2.7,2-5.5,3.1-8.4,3.1ZM374,95.9c-3.5,0-6.1,1.1-7.7,3.2-1.6,2.2-2.5,5.4-2.5,9.6s.5,5.9,1.5,7.8c1,1.8,2.2,2.6,3.9,2.6s2.6-.8,4.1-2.4c1.5-1.6,2.6-4,3.4-7v-13.9h-2.7Z"/>
        <path class="cls-2" d="M370.6,43.7c6.6,0,11.4,2.7,14.6,8.1,3.1,5.4,4.7,13.2,4.7,23.4v34.9c0,3.4.2,5.8.7,7.3.5,1.5,1.2,2.7,2.2,3.4l-2.7,17.5c-2.6-.5-4.8-1.7-6.6-3.5-1.8-1.8-3.2-4.6-4.2-8.3-1.7,4.1-3.9,7.1-6.5,9.1-2.6,2-5.3,3-8.1,3-4.6,0-8.2-2.6-10.9-7.8-2.7-5.2-4.1-12-4.1-20.2s1.9-17.1,5.6-22.4c3.8-5.3,9.1-7.9,15.9-7.9h6v-3.4c0-9.1-2.9-13.7-8.7-13.7s-3.2.4-5.5,1.2c-2.2.8-4.4,2-6.7,3.5l-3-17.6c2.9-2.2,5.8-3.8,8.9-5,3.1-1.1,5.9-1.7,8.3-1.7M369.2,119.7c1.4,0,2.9-.9,4.5-2.6,1.6-1.7,2.7-4.1,3.5-7.3v-14.4h-3.2c-3.7,0-6.4,1.1-8.1,3.4-1.7,2.3-2.6,5.6-2.6,9.9s.5,6.1,1.6,8c1,1.9,2.5,2.9,4.4,2.9M370.6,42.7c-2.5,0-5.5.6-8.6,1.7-3.2,1.2-6.3,2.9-9.2,5.1-.3.2-.4.6-.4,1l3,17.6c0,.3.3.6.6.8.1,0,.3,0,.4,0,.2,0,.4,0,.6-.2,2.1-1.5,4.3-2.6,6.4-3.4,2.1-.8,3.8-1.2,5.1-1.2,5.2,0,7.7,4.1,7.7,12.7v2.4h-5c-7.1,0-12.8,2.8-16.7,8.3-3.9,5.4-5.8,13.1-5.8,23s1.4,15.3,4.2,20.6c2.9,5.6,6.8,8.4,11.8,8.4s5.9-1.1,8.7-3.2c2.2-1.7,4.1-4.1,5.7-7.2,1,2.6,2.2,4.7,3.7,6.2,1.9,2,4.3,3.2,7.1,3.8,0,0,.1,0,.2,0,.2,0,.4,0,.6-.2.2-.2.4-.4.4-.7l2.7-17.5c0-.4,0-.7-.4-.9-.9-.6-1.5-1.6-1.9-2.9-.4-1.4-.6-3.8-.6-7v-34.9c0-10.3-1.6-18.3-4.9-23.9-3.3-5.7-8.5-8.6-15.5-8.6h0ZM369.2,118.7c-1.5,0-2.6-.8-3.5-2.4-1-1.8-1.4-4.3-1.4-7.5s.8-7.3,2.4-9.3c1.5-2,3.9-3,7.3-3h2.2v13.3c-.8,2.9-1.9,5.2-3.3,6.7-1.3,1.5-2.6,2.2-3.7,2.2h0Z"/>
      </g>
      <g>
        <path class="cls-1" d="M404,136.3c-.3,0-.5-.2-.5-.5v-18.1c0-.3.2-.5.5-.5h12v-51.9h-11.6c-.3,0-.5-.2-.5-.5v-18.1c0-.3.2-.5.5-.5h25.3c.3,0,.5.2.5.5v70.5h10.7c.3,0,.5.2.5.5v18.1c0,.3-.2.5-.5.5h-36.9ZM421.7,30.5c-2.5,0-4.5-1.5-6.1-4.6-1.5-2.9-2.2-6.6-2.2-10.9s.8-8,2.2-10.9c1.5-3,3.6-4.6,6.1-4.6s4.5,1.5,6,4.6c1.5,2.9,2.2,6.6,2.2,10.9s-.7,8-2.2,10.9c-1.5,3.1-3.6,4.6-6,4.6Z"/>
        <path class="cls-2" d="M421.7,0c2.3,0,4.1,1.4,5.6,4.3,1.4,2.9,2.2,6.4,2.2,10.7s-.7,7.8-2.2,10.7c-1.4,2.9-3.3,4.3-5.6,4.3s-4.2-1.4-5.6-4.3c-1.5-2.9-2.2-6.4-2.2-10.7s.7-7.8,2.2-10.7C417.5,1.4,419.4,0,421.7,0M429.7,46.7v71h11.2v18.1h-36.9v-18.1h12.5v-52.9h-12.1v-18.1h25.3M421.7-1c-2.7,0-4.9,1.6-6.5,4.8-1.5,3-2.3,6.7-2.3,11.1s.8,8.1,2.3,11.2c1.6,3.2,3.8,4.9,6.5,4.9s4.9-1.6,6.5-4.9c1.5-3,2.3-6.8,2.3-11.1s-.8-8.1-2.3-11.1c-1.6-3.2-3.8-4.8-6.5-4.8h0ZM429.7,45.7h-25.3c-.6,0-1,.4-1,1v18.1c0,.6.4,1,1,1h11.1v50.9h-11.5c-.6,0-1,.4-1,1v18.1c0,.6.4,1,1,1h36.9c.6,0,1-.4,1-1v-18.1c0-.6-.4-1-1-1h-10.2V46.7c0-.6-.4-1-1-1h0Z"/>
      </g>
      <g>
        <path class="cls-1" d="M470.6,139.1c-5.5,0-10.2-1.7-14-5-3.7-3.2-6.8-7.3-9.3-12.1,0-.1,0-.3,0-.4l6.9-15.4c0-.2.2-.3.4-.3,0,0,0,0,0,0,.2,0,.3,0,.4.3,2.1,3.7,4.4,6.6,7,8.5,2.5,2,5.2,3,8.2,3s4.9-1.2,6.5-3.5c1.7-2.4,2.6-5.8,2.6-10.2s-.7-7.4-2.2-9.7c-1.4-2.3-4.2-4.7-8.1-7.1-6.8-4.2-11.7-9.2-14.6-14.8-2.9-5.7-4.3-13-4.3-21.9s1-13.3,3-18.4c2-5.1,4.7-9,8-11.7,3.4-2.7,7.2-4.1,11.2-4.1s8.6,1.3,12.1,4c3.5,2.6,6.5,6.4,9,11.3,0,.1,0,.3,0,.4l-6.5,14.9c0,.2-.2.3-.4.3,0,0,0,0,0,0-.2,0-.3,0-.4-.2-1.9-3.2-4-5.6-6.1-7.2-2.2-1.5-4.4-2.3-6.6-2.3s-4.4.9-5.9,2.7c-1.5,1.8-2.3,4.6-2.3,8.2s.3,4.4,1,6c.7,1.6,1.8,3.1,3.5,4.6,1.7,1.5,4.1,3.2,7.1,5.1,3.7,2.3,6.8,5,9.5,8.1,2.6,3.1,4.7,7.1,6,11.9,1.4,4.7,2.1,10.8,2.1,17.9s-1,13.7-2.8,19.3c-1.9,5.6-4.7,10-8.2,13.2-3.6,3.2-7.9,4.8-12.9,4.8Z"/>
        <path class="cls-2" d="M472.4,16.5c4.5,0,8.4,1.3,11.8,3.9s6.4,6.3,8.9,11.1l-6.5,14.9c-1.9-3.3-4-5.7-6.3-7.3-2.2-1.6-4.5-2.4-6.9-2.4s-4.7,1-6.3,2.9c-1.6,1.9-2.4,4.8-2.4,8.5s.3,4.5,1,6.2c.7,1.7,1.9,3.3,3.6,4.7,1.7,1.5,4.1,3.2,7.2,5.2,3.6,2.2,6.8,4.9,9.3,8,2.6,3.1,4.6,7,6,11.7,1.4,4.7,2.1,10.6,2.1,17.8s-.9,13.6-2.8,19.1c-1.9,5.5-4.6,9.9-8.1,13-3.5,3.1-7.7,4.7-12.6,4.7s-10-1.6-13.7-4.8c-3.7-3.2-6.7-7.2-9.1-12l6.9-15.4c2.1,3.7,4.5,6.6,7.1,8.7,2.6,2,5.4,3.1,8.5,3.1s5.2-1.2,7-3.7c1.8-2.5,2.7-6,2.7-10.5s-.7-7.6-2.2-10c-1.5-2.4-4.2-4.8-8.3-7.3-6.7-4.1-11.5-9-14.4-14.6-2.8-5.6-4.3-12.9-4.3-21.7s1-13.2,2.9-18.2c2-5,4.6-8.9,7.9-11.5,3.3-2.7,6.9-4,10.9-4M472.4,15.5c-4.2,0-8.1,1.4-11.5,4.2-3.4,2.8-6.2,6.8-8.2,12-2,5.1-3,11.4-3,18.6s1.5,16.4,4.4,22.1c2.9,5.8,7.9,10.8,14.8,15,3.9,2.4,6.5,4.7,7.9,7,1.4,2.2,2.1,5.4,2.1,9.5s-.8,7.6-2.5,10c-1.6,2.2-3.6,3.3-6.1,3.3s-5.5-1-7.9-2.8c-2.5-2-4.8-4.8-6.8-8.4-.2-.3-.5-.5-.9-.5s0,0,0,0c-.4,0-.7.2-.9.6l-6.9,15.4c-.1.3-.1.6,0,.9,2.5,4.8,5.6,9,9.4,12.3,3.8,3.4,8.7,5.1,14.3,5.1s9.6-1.7,13.3-5c3.6-3.2,6.4-7.8,8.3-13.4,1.9-5.6,2.9-12.2,2.9-19.5s-.7-13.3-2.1-18.1c-1.4-4.8-3.5-8.9-6.1-12.1-2.7-3.2-5.9-5.9-9.6-8.2-3-1.9-5.4-3.6-7-5.1-1.6-1.4-2.7-2.8-3.4-4.4-.6-1.5-1-3.5-1-5.8,0-3.5.7-6.1,2.1-7.9,1.4-1.7,3.2-2.5,5.5-2.5s4.2.7,6.3,2.2c2.1,1.5,4.1,3.9,6,7,.2.3.5.5.9.5s0,0,0,0c.4,0,.7-.3.9-.6l6.5-14.9c.1-.3.1-.6,0-.9-2.6-4.9-5.6-8.8-9.1-11.5-3.6-2.7-7.8-4.1-12.4-4.1h0Z"/>
      </g>
      <g>
        <path class="cls-1" d="M527.7,136.3c-.3,0-.5-.2-.5-.5v-58.1c0-5.3-.3-9-.9-11.1-.5-1.9-1.5-2.8-2.9-2.8s-2.4.9-3.6,2.7c-1.2,1.9-2.5,4.5-3.7,7.7v61.6c0,.3-.2.5-.5.5h-13.2c-.3,0-.5-.2-.5-.5V11.2c0-.2.2-.4.4-.5l13.2-2.6s0,0,0,0c.1,0,.2,0,.3.1.1,0,.2.2.2.4v44.7c3.6-6.7,7.8-10.1,12.5-10.1s7.3,2.4,9.5,7.3c2.1,4.7,3.2,11.4,3.2,19.8v65.5c0,.3-.2.5-.5.5h-13.2Z"/>
        <path class="cls-2" d="M515.7,8.6v46.8c3.7-7.8,8-11.7,13-11.7s7,2.3,9,7c2.1,4.6,3.1,11.2,3.1,19.6v65.5h-13.2v-58.1c0-5.4-.3-9.1-.9-11.2-.6-2.1-1.7-3.2-3.4-3.2s-2.7,1-4,2.9c-1.3,1.9-2.5,4.6-3.8,7.9v61.7h-13.2V11.2l13.2-2.6M515.7,7.6c0,0-.1,0-.2,0l-13.2,2.6c-.5,0-.8.5-.8,1v124.5c0,.6.4,1,1,1h13.2c.6,0,1-.4,1-1v-61.5c1.2-3.2,2.4-5.7,3.6-7.6,1.1-1.6,2.1-2.4,3.1-2.4s1.8.3,2.4,2.5c.6,2,.9,5.7.9,11v58.1c0,.6.4,1,1,1h13.2c.6,0,1-.4,1-1v-65.5c0-8.6-1.1-15.3-3.2-20-2.2-5-5.6-7.6-9.9-7.6s-8.5,2.9-12,8.7V8.6c0-.3-.1-.6-.4-.8-.2-.1-.4-.2-.6-.2h0Z"/>
      </g>
      <g>
        <path class="cls-1" d="M573.5,139.1c-5.2,0-9.6-2.1-13.1-6.3-3.4-4.1-6.1-9.8-7.8-16.9-1.7-7.1-2.6-15.4-2.6-24.6s.8-16.9,2.5-24.1c1.7-7.2,4.2-13.1,7.4-17.4,3.3-4.4,7.4-6.6,12.2-6.6s8.2,1.9,11.4,5.6c3.1,3.7,5.6,9,7.3,15.9,1.7,6.8,2.6,15.1,2.6,24.7s0,3.1,0,4.9c0,1.7-.1,3.3-.2,4.6,0,.3-.2.5-.5.5h-28.1c.5,6.9,1.6,11.9,3.4,14.9,1.8,3,4,4.5,6.6,4.5s3.8-.6,5.6-1.9c1.8-1.3,3.6-3.1,5.3-5.3,0-.1.2-.2.4-.2s0,0,0,0c.2,0,.3.2.4.3l5.3,14.4c0,.1,0,.3,0,.4-2.1,3.6-4.7,6.6-7.7,9-3,2.4-6.5,3.5-10.4,3.5ZM579.5,82.5c0-6.2-.7-11.2-1.8-15-1.2-3.7-3-5.5-5.6-5.5s-3.9,1.6-5.2,4.8c-1.4,3.3-2.2,8.5-2.6,15.7h15.2Z"/>
        <path class="cls-2" d="M572.1,43.7c4.2,0,7.9,1.8,11,5.5,3.1,3.6,5.5,8.9,7.2,15.7,1.7,6.8,2.6,15,2.6,24.6s0,3.1,0,4.9c0,1.7-.1,3.3-.2,4.6h-28.6c.4,7.3,1.6,12.5,3.5,15.7,1.9,3.2,4.3,4.7,7.1,4.7s4-.7,5.9-2c1.9-1.3,3.7-3.1,5.5-5.4l5.3,14.4c-2.1,3.6-4.6,6.5-7.6,8.8-3,2.3-6.3,3.4-10.1,3.4s-9.3-2-12.7-6.1c-3.4-4.1-6-9.6-7.7-16.7-1.7-7.1-2.6-15.3-2.6-24.5s.8-16.8,2.5-24c1.7-7.2,4.1-12.9,7.3-17.2,3.2-4.3,7.1-6.4,11.8-6.4M563.7,83h16.2c0-6.5-.7-11.7-1.9-15.6-1.2-3.9-3.2-5.9-6-5.9s-4.3,1.7-5.7,5.1c-1.4,3.4-2.3,8.9-2.6,16.4M572.1,42.7c-4.9,0-9.2,2.3-12.6,6.8-3.3,4.4-5.8,10.3-7.5,17.6-1.7,7.2-2.5,15.4-2.5,24.2s.9,17.6,2.6,24.7c1.7,7.2,4.4,13,7.9,17.2,3.6,4.3,8.1,6.4,13.5,6.4s7.6-1.2,10.7-3.7c3-2.4,5.7-5.4,7.8-9.1.1-.3.2-.6,0-.8l-5.3-14.4c-.1-.3-.4-.6-.8-.6,0,0-.1,0-.2,0-.3,0-.6.1-.8.4-1.7,2.2-3.4,3.9-5.2,5.2-1.7,1.2-3.5,1.8-5.3,1.8s-4.5-1.4-6.2-4.3c-1.7-2.9-2.8-7.6-3.3-14.1h27.6c.5,0,1-.4,1-.9,0-1.3.1-2.9.2-4.7,0-1.7,0-3.4,0-4.9,0-9.6-.9-18-2.6-24.8-1.7-6.9-4.2-12.4-7.4-16.1-3.3-3.9-7.2-5.8-11.7-5.8h0ZM564.8,82c.3-6.8,1.2-11.8,2.5-15,1.3-3,2.8-4.5,4.8-4.5s4,1.7,5.1,5.2c1.1,3.6,1.7,8.4,1.8,14.3h-14.2Z"/>
      </g>
      <g>
        <path class="cls-1" d="M630.6,136.3c-.2,0-.4-.1-.5-.4l-14-47.2v47.1c0,.3-.2.5-.5.5h-13.2c-.3,0-.5-.2-.5-.5V11.2c0-.2.2-.4.4-.5l13.2-2.8s0,0,.1,0c.1,0,.2,0,.3.1.1,0,.2.2.2.4v77l14.1-39c0-.2.3-.3.5-.3h13.8c.2,0,.3,0,.4.2,0,.1.1.3,0,.5l-14.5,39.3,15.7,49.5c0,.2,0,.3,0,.4,0,.1-.2.2-.4.2h-15Z"/>
        <path class="cls-2" d="M615.6,8.5v127.3h-13.2V11.2l13.2-2.8M644.4,46.7l-14.5,39.4,15.7,49.7h-15l-14.5-48.8,14.5-40.3h13.8M615.6,7.5c0,0-.1,0-.2,0l-13.2,2.8c-.5,0-.8.5-.8,1v124.5c0,.6.4,1,1,1h13.2c.6,0,1-.4,1-1v-43.7l13.1,43.9c.1.4.5.7,1,.7h15c.3,0,.6-.2.8-.4.2-.3.2-.6.1-.9l-15.6-49.4,14.4-39.1c.1-.3,0-.6-.1-.9s-.5-.4-.8-.4h-13.8c-.4,0-.8.3-.9.7l-13.1,36.3V8.5c0-.3-.1-.6-.4-.8-.2-.1-.4-.2-.6-.2h0ZM644.4,47.7h0,0Z"/>
      </g>
      <g>
        <path class="cls-1" d="M668.4,139.1c-4.4,0-8.4-1.6-11.9-4.7-3.5-3.1-6.4-7.5-8.9-13.1,0-.1,0-.3,0-.4l7.4-13.9c0-.2.3-.3.4-.3h0c.2,0,.4.1.4.3,1.6,3.8,3.5,6.5,5.4,8.3,1.9,1.7,4,2.5,6.1,2.5s4.8-1.4,6.6-4.2c1.7-2.8,2.6-7,2.6-12.5s-.8-10.4-2.5-13c-1.6-2.6-3.8-3.8-6.8-3.8h-5.2c-.1,0-.3,0-.4-.2s-.1-.2-.1-.4l1.5-18.3c0-.3.2-.5.5-.5h3.7c2.4,0,4.3-1.2,5.8-3.5,1.6-2.4,2.4-6.2,2.4-11.1s-.8-7.6-2.3-10.1c-1.5-2.4-3.3-3.5-5.6-3.5s-4.2.9-5.9,2.5c-1.8,1.7-3.6,4.2-5.2,7.3,0,.2-.3.3-.4.3h0c-.2,0-.4-.1-.4-.3l-6.7-14.1c0-.1,0-.3,0-.4,2.7-5.2,5.7-9.2,9-11.9,3.4-2.7,7.1-4.1,11.2-4.1s8,1.4,11,4.2c3,2.8,5.3,6.5,6.8,11,1.6,4.5,2.3,9.6,2.3,15.1s-1.1,13.5-3.3,18.1c-2,4.2-4.6,7.4-7.8,9.6,3.6,1.3,6.6,4,9,8.1,2.6,4.5,3.9,11.5,3.9,20.9s-.9,12.6-2.7,18c-1.8,5.4-4.4,9.8-7.8,13.1-3.4,3.3-7.5,5-12.3,5Z"/>
        <path class="cls-2" d="M669.2,16.5c4.2,0,7.7,1.4,10.6,4.1,2.9,2.7,5.2,6.3,6.7,10.8,1.5,4.5,2.3,9.5,2.3,14.9s-1.1,13.4-3.2,17.9c-2.2,4.6-5,7.9-8.6,9.9,4,1.1,7.2,3.8,9.8,8.2,2.6,4.4,3.8,11.3,3.8,20.7s-.9,12.5-2.7,17.9c-1.8,5.4-4.4,9.7-7.7,12.9-3.3,3.2-7.3,4.8-11.9,4.8s-8.2-1.5-11.6-4.6c-3.4-3-6.3-7.3-8.7-12.9l7.4-13.9c1.7,3.9,3.5,6.7,5.6,8.4,2,1.8,4.2,2.6,6.5,2.6s5.2-1.5,7-4.4c1.8-2.9,2.7-7.2,2.7-12.7s-.9-10.6-2.6-13.3c-1.7-2.7-4.1-4.1-7.2-4.1h-5.2l1.5-18.3h3.7c2.6,0,4.6-1.3,6.3-3.8,1.6-2.5,2.4-6.3,2.4-11.4s-.8-7.8-2.3-10.3c-1.6-2.5-3.6-3.8-6-3.8s-4.4.9-6.3,2.7c-1.9,1.8-3.6,4.3-5.3,7.4l-6.7-14.1c2.6-5.1,5.6-9,8.9-11.7,3.3-2.7,6.9-4,10.9-4M669.2,15.5c-4.2,0-8.1,1.4-11.5,4.2-3.4,2.7-6.4,6.8-9.1,12-.1.3-.1.6,0,.9l6.7,14.1c.2.3.5.6.9.6,0,0,0,0,0,0,.4,0,.7-.2.9-.5,1.6-3,3.3-5.4,5.1-7.1,1.7-1.6,3.5-2.4,5.6-2.4s3.8,1.1,5.2,3.3c1.4,2.3,2.2,5.6,2.2,9.8s-.8,8.5-2.3,10.9c-1.4,2.2-3.2,3.3-5.4,3.3h-3.7c-.5,0-1,.4-1,.9l-1.5,18.3c0,.3,0,.6.3.8.2.2.5.3.7.3h5.2c2.8,0,4.9,1.2,6.4,3.6,1.6,2.5,2.4,6.8,2.4,12.8s-.9,9.4-2.6,12.2c-1.6,2.6-3.6,3.9-6.1,3.9s-4-.8-5.8-2.4c-1.9-1.7-3.7-4.4-5.3-8.1-.2-.4-.5-.6-.9-.6,0,0,0,0,0,0-.4,0-.7.2-.9.5l-7.4,13.9c-.1.3-.2.6,0,.9,2.5,5.6,5.5,10.1,9,13.2,3.6,3.2,7.7,4.8,12.2,4.8s9.1-1.7,12.6-5.1c3.4-3.3,6.1-7.8,7.9-13.3,1.8-5.4,2.7-11.6,2.7-18.2,0-9.5-1.3-16.7-4-21.2-2.2-3.9-5.1-6.5-8.4-8,2.9-2.2,5.3-5.3,7.2-9.2,2.2-4.7,3.3-10.8,3.3-18.3s-.8-10.6-2.4-15.2c-1.6-4.6-3.9-8.4-7-11.2-3.1-2.9-6.9-4.3-11.3-4.3h0Z"/>
      </g>
      <g>
        <path class="cls-1" d="M701,136.3c-.3,0-.5-.2-.5-.5v-18.8c0,0,0-.2,0-.2,4.7-9.2,8.7-17.2,11.9-23.8,3.2-6.6,5.8-12.4,7.7-17.2,1.9-4.8,3.3-9.1,4.1-12.8.8-3.7,1.2-7.3,1.2-10.7s-.7-8.3-2-10.9c-1.3-2.6-3-3.8-5.3-3.8s-3.8.8-5.3,2.6c-1.6,1.8-3.1,4.8-4.6,8.8,0,.2-.2.3-.4.3,0,0,0,0,0,0-.2,0-.3,0-.4-.2l-8.1-12.3c0-.1-.1-.3,0-.4,2.2-6.1,4.9-11,8.1-14.6,3.2-3.7,7.3-5.6,12.1-5.6s8.3,1.6,11.4,4.8c3,3.1,5.3,7.3,6.8,12.4,1.5,5.1,2.2,10.7,2.2,16.6s-.4,9.4-1.2,13.9c-.8,4.5-2.1,9.3-3.9,14.3-1.8,5-4.2,10.6-7.2,16.7-2.9,5.9-6.5,12.7-10.7,20.3h23.8c.1,0,.3,0,.4.2s.1.2.1.4l-1.4,20.2c0,.3-.2.5-.5.5h-38.3Z"/>
        <path class="cls-2" d="M719.5,16.5c4.4,0,8.1,1.5,11,4.6,3,3.1,5.2,7.1,6.7,12.2,1.5,5.1,2.2,10.6,2.2,16.5s-.4,9.3-1.2,13.8c-.8,4.5-2.1,9.3-3.9,14.3-1.8,5-4.2,10.6-7.2,16.7-3,6.1-6.7,13.1-11.1,21h24.6l-1.4,20.2h-38.3v-18.8c4.7-9.2,8.7-17.2,11.9-23.8,3.2-6.7,5.8-12.4,7.7-17.2,1.9-4.8,3.3-9.1,4.1-12.9.8-3.7,1.2-7.4,1.2-10.8s-.7-8.4-2-11.2c-1.3-2.7-3.3-4.1-5.7-4.1s-4.1.9-5.7,2.8c-1.6,1.8-3.2,4.8-4.7,9l-8.1-12.3c2.2-6,4.8-10.9,8-14.5,3.2-3.6,7.1-5.4,11.7-5.4M740.7,115.6h0M719.5,15.5c-4.9,0-9.1,1.9-12.4,5.8-3.2,3.7-6,8.7-8.2,14.8-.1.3,0,.6.1.9l8.1,12.3c.2.3.5.4.8.4s0,0,.1,0c.4,0,.7-.3.8-.7,1.4-4,3-6.9,4.5-8.7,1.4-1.6,3-2.4,4.9-2.4s3.7,1.2,4.8,3.6c1.3,2.6,1.9,6.2,1.9,10.7s-.4,7-1.2,10.6c-.8,3.7-2.2,8-4.1,12.7-1.9,4.8-4.5,10.6-7.7,17.2-3.2,6.6-7.2,14.6-11.9,23.8,0,.1-.1.3-.1.5v18.8c0,.6.4,1,1,1h38.3c.5,0,1-.4,1-.9l1.4-20.2s0,0,0-.1c0-.6-.4-1-1-1h-23c4-7.3,7.5-13.8,10.3-19.5,3-6.1,5.4-11.7,7.2-16.8,1.8-5,3.1-9.9,3.9-14.4.8-4.5,1.2-9.2,1.2-14s-.8-11.6-2.3-16.8c-1.5-5.2-3.8-9.4-6.9-12.6-3.1-3.3-7.1-4.9-11.7-4.9h0Z"/>
      </g>
      <g>
        <path class="cls-1" d="M768.5,139c0,0-.2,0-.3,0l-12.5-7.8c-.2-.1-.3-.3-.2-.5l21.4-90.6h-24.7c-.3,0-.5-.2-.5-.5v-20c0-.3.2-.5.5-.5h38.7c.3,0,.5.2.5.5v18s0,0,0,.1l-22.4,101c0,.2-.1.3-.3.4,0,0-.1,0-.2,0Z"/>
        <path class="cls-2" d="M790.8,19.5v18l-22.4,101-12.5-7.8,21.5-91.2h-25.4v-20h38.7M790.8,18.5h-38.7c-.6,0-1,.4-1,1v20c0,.6.4,1,1,1h24.1l-21.2,90c0,.4,0,.9.4,1.1l12.5,7.8c.2.1.3.2.5.2s.3,0,.4,0c.3-.1.5-.4.6-.7l22.4-101c0,0,0-.1,0-.2v-18c0-.6-.4-1-1-1h0Z"/>
      </g>
      <g>
        <path class="cls-1" d="M813.4,61.4c-.1,0-.3,0-.4-.2,0-.1-.1-.2-.1-.4l3.6-29.5c-1-1.5-1.8-3.3-2.3-5.3-.6-2.1-.9-4.6-.9-7.5,0-4.3.8-8,2.3-11,1.6-3.1,3.6-4.7,6-4.7s4.5,1.6,6,4.7c1.5,3,2.3,6.7,2.3,11s-.2,5-.6,7.6c-.4,2.6-1.1,6-2.1,10l-6,24.9c0,.2-.3.4-.5.4h-7.4Z"/>
        <path class="cls-2" d="M821.6,3.4c2.2,0,4.1,1.5,5.6,4.4,1.5,2.9,2.2,6.5,2.2,10.8s-.2,4.9-.6,7.6c-.4,2.6-1.1,5.9-2.1,9.9l-6,24.9h-7.4l3.6-29.7c-1-1.5-1.8-3.2-2.4-5.3-.6-2.1-.9-4.5-.9-7.3,0-4.3.8-7.8,2.3-10.8,1.5-2.9,3.4-4.4,5.6-4.4M821.6,2.4c-2.6,0-4.8,1.7-6.5,4.9-1.6,3.1-2.4,6.8-2.4,11.2s.3,5.4.9,7.6c.6,2,1.3,3.8,2.3,5.3l-3.5,29.3c0,.3,0,.6.2.8.2.2.5.3.7.3h7.4c.5,0,.9-.3,1-.8l6-24.9c1-4,1.7-7.3,2.1-10,.4-2.7.6-5.3.6-7.7,0-4.4-.8-8.2-2.3-11.2-1.6-3.3-3.8-5-6.5-5h0Z"/>
      </g>
      <g>
        <path class="cls-1" d="M870,139.1c-4.4,0-8.3-1.3-11.6-3.8-3.3-2.5-6.2-5.8-8.5-9.9,0-.1,0-.3,0-.5l6.6-14.9c0-.2.2-.3.4-.3,0,0,0,0,0,0,.2,0,.3,0,.4.2,1.7,2.6,3.6,4.9,5.7,6.6,2.1,1.7,4.4,2.6,6.8,2.6s3.7-.6,4.9-1.9c1.2-1.3,1.9-3.3,1.9-5.9s-.3-3.4-.8-4.6c-.5-1.2-1.5-2.4-2.9-3.5-1.5-1.2-3.7-2.5-6.6-4.2-4.1-2.2-7.5-5.4-10.1-9.6-2.6-4.1-3.9-10.3-3.9-18.2s1.7-14.7,5-20c3.4-5.3,8.3-8,14.7-8s7.6,1.1,10.6,3.2c3,2.1,5.6,4.7,7.7,7.9,0,.1.1.3,0,.4l-5.2,15.6c0,.2-.2.3-.4.3,0,0,0,0,0,0-.2,0-.3,0-.4-.2-1.8-2.2-3.7-4.1-5.8-5.4-2-1.3-4.1-2-6.1-2-3.9,0-5.8,2.1-5.8,6.4s.3,2.7.8,3.7c.5,1,1.5,2.1,2.9,3.2,1.5,1.1,3.7,2.5,6.5,4.2,2.9,1.6,5.4,3.6,7.6,5.7,2.2,2.2,3.9,5.1,5.1,8.7,1.2,3.6,1.8,8.4,1.8,14.2s-1,12.1-2.9,16.5c-1.9,4.5-4.6,7.8-7.8,10.1-3.2,2.2-6.8,3.4-10.7,3.4Z"/>
        <path class="cls-2" d="M872.3,43.7c3.9,0,7.4,1,10.3,3.1,2.9,2,5.5,4.6,7.6,7.8l-5.2,15.6c-1.8-2.3-3.8-4.1-5.9-5.5-2.1-1.4-4.2-2.1-6.4-2.1-4.2,0-6.3,2.3-6.3,6.9s.3,2.8.8,3.9c.5,1.1,1.6,2.2,3.1,3.4,1.5,1.1,3.7,2.6,6.6,4.2,2.9,1.6,5.3,3.5,7.5,5.6,2.1,2.1,3.8,5,4.9,8.5,1.2,3.6,1.7,8.2,1.7,14.1s-1,11.9-2.9,16.3c-1.9,4.4-4.5,7.7-7.6,9.9-3.2,2.2-6.6,3.3-10.4,3.3s-8-1.2-11.3-3.7c-3.3-2.5-6.1-5.7-8.4-9.7l6.6-14.9c1.7,2.7,3.7,4.9,5.8,6.7,2.2,1.8,4.6,2.7,7.1,2.7s4-.7,5.3-2.1c1.3-1.4,2-3.5,2-6.3s-.3-3.5-.8-4.8c-.5-1.3-1.5-2.5-3-3.7-1.5-1.2-3.7-2.6-6.7-4.2-4.1-2.2-7.3-5.3-9.9-9.4-2.5-4.1-3.8-10.1-3.8-18s1.6-14.5,4.9-19.7c3.3-5.2,8-7.8,14.3-7.8M872.3,42.7c-6.6,0-11.6,2.8-15.1,8.3-3.4,5.3-5.1,12.2-5.1,20.3s1.3,14.3,4,18.5c2.6,4.2,6.1,7.5,10.3,9.8,2.9,1.6,5.1,3,6.5,4.1,1.4,1.1,2.3,2.2,2.7,3.3.5,1.2.7,2.6.7,4.4,0,2.5-.6,4.4-1.7,5.6-1.2,1.2-2.7,1.8-4.6,1.8s-4.5-.8-6.5-2.5c-2.1-1.7-4-3.9-5.6-6.5-.2-.3-.5-.5-.8-.5s0,0,0,0c-.4,0-.7.3-.8.6l-6.6,14.9c-.1.3-.1.6,0,.9,2.4,4.1,5.3,7.5,8.6,10,3.4,2.6,7.4,3.9,11.9,3.9s7.7-1.2,11-3.4c3.3-2.3,6-5.7,8-10.3,2-4.5,3-10.1,3-16.7s-.6-10.7-1.8-14.4c-1.2-3.7-3-6.7-5.2-8.9-2.2-2.2-4.8-4.1-7.7-5.8-2.8-1.6-5-3-6.5-4.2-1.4-1-2.3-2.1-2.8-3-.5-.9-.7-2.1-.7-3.5,0-4,1.7-5.9,5.3-5.9s3.9.6,5.8,1.9c2,1.3,3.9,3.1,5.7,5.3.2.2.5.4.8.4s.1,0,.2,0c.4,0,.7-.3.8-.7l5.2-15.6c0-.3,0-.6-.1-.9-2.2-3.2-4.8-5.9-7.9-8-3.1-2.2-6.7-3.2-10.9-3.2h0Z"/>
      </g>
      <g>
        <path class="cls-1" d="M967,138.8c-3.8,0-7.1-1-9.9-3-2.7-2-5.4-4.7-7.9-8.1,0-.1-.1-.3,0-.4l5.2-17c0-.2.2-.3.4-.3,0,0,0,0,0,0,.2,0,.3,0,.4.2,1.9,2.7,3.7,4.6,5.4,5.6,1.6,1,3.5,1.6,5.6,1.6s5.1-1.8,7-5.5c1.9-3.7,2.9-9.7,2.9-17.6v-54.1h-17.2c-.3,0-.5-.2-.5-.5v-20.1c0-.3.2-.5.5-.5h31.3c.3,0,.5.2.5.5v74.4c0,13.6-2.1,24.6-6.1,32.6-4.1,8.1-10,12.3-17.6,12.3Z"/>
        <path class="cls-2" d="M990.2,19.5v74.4c0,13.6-2,24.4-6.1,32.4-4,8-9.7,12-17.1,12s-6.9-1-9.6-2.9c-2.7-1.9-5.3-4.6-7.8-8l5.2-17c2,2.7,3.8,4.7,5.5,5.7,1.7,1.1,3.7,1.6,5.9,1.6s5.4-1.9,7.4-5.7c2-3.8,3-9.8,3-17.8v-54.6h-17.7v-20.1h31.3M990.2,18.5h-31.3c-.6,0-1,.4-1,1v20.1c0,.6.4,1,1,1h16.7v53.6c0,7.9-1,13.7-2.9,17.4-1.8,3.5-4,5.2-6.5,5.2s-3.8-.5-5.3-1.5c-1.6-1-3.4-2.9-5.3-5.5-.2-.3-.5-.4-.8-.4,0,0-.1,0-.2,0-.4,0-.7.3-.8.7l-5.2,17c0,.3,0,.6.1.9,2.5,3.5,5.3,6.3,8,8.2,2.9,2,6.3,3.1,10.2,3.1,7.8,0,13.8-4.2,18-12.6,4.1-8.1,6.2-19.2,6.2-32.8V19.5c0-.6-.4-1-1-1h0Z"/>
      </g>
      <g>
        <path class="cls-1" d="M1014.1,139.1c-4.7,0-8.5-2.7-11.3-8.1-2.7-5.3-4.1-12.1-4.1-20.4s1.9-17.4,5.7-22.7c3.8-5.4,9.3-8.1,16.3-8.1h5.5v-2.9c0-8.9-2.7-13.2-8.2-13.2s-3.1.4-5.3,1.2c-2.2.8-4.4,1.9-6.6,3.4,0,0-.2,0-.3,0s-.1,0-.2,0c-.2,0-.3-.2-.3-.4l-3-17.6c0-.2,0-.4.2-.5,2.9-2.2,5.9-3.9,9.1-5,3.1-1.1,6-1.7,8.5-1.7,6.7,0,11.8,2.8,15,8.3,3.2,5.5,4.8,13.4,4.8,23.6v34.9c0,3.3.2,5.7.7,7.2.4,1.4,1.1,2.5,2.1,3.2.1.1.2.3.2.5l-2.7,17.5c0,.1,0,.3-.2.3,0,0-.2,0-.3,0s0,0,0,0c-2.7-.5-5-1.7-6.9-3.6-1.6-1.6-3-4.1-4-7.2-1.6,3.5-3.7,6.2-6.1,8.1-2.7,2-5.5,3.1-8.4,3.1ZM1023.4,95.9c-3.5,0-6.1,1.1-7.7,3.2-1.6,2.2-2.5,5.4-2.5,9.6s.5,5.9,1.5,7.8c1,1.8,2.2,2.6,3.9,2.6s2.6-.8,4.1-2.4c1.5-1.6,2.6-4,3.4-7v-13.9h-2.7Z"/>
        <path class="cls-2" d="M1020,43.7c6.6,0,11.4,2.7,14.6,8.1,3.1,5.4,4.7,13.2,4.7,23.4v34.9c0,3.4.2,5.8.7,7.3.5,1.5,1.2,2.7,2.2,3.4l-2.7,17.5c-2.6-.5-4.8-1.7-6.6-3.5-1.8-1.8-3.2-4.6-4.2-8.3-1.7,4.1-3.9,7.1-6.5,9.1-2.6,2-5.3,3-8.1,3-4.6,0-8.2-2.6-10.9-7.8-2.7-5.2-4.1-12-4.1-20.2s1.9-17.1,5.6-22.4c3.8-5.3,9.1-7.9,15.9-7.9h6v-3.4c0-9.1-2.9-13.7-8.7-13.7s-3.2.4-5.5,1.2c-2.2.8-4.4,2-6.7,3.5l-3-17.6c2.9-2.2,5.8-3.8,8.9-5,3.1-1.1,5.9-1.7,8.3-1.7M1018.7,119.7c1.4,0,2.9-.9,4.5-2.6,1.6-1.7,2.7-4.1,3.5-7.3v-14.4h-3.2c-3.7,0-6.4,1.1-8.1,3.4-1.7,2.3-2.6,5.6-2.6,9.9s.5,6.1,1.6,8c1,1.9,2.5,2.9,4.4,2.9M1020,42.7c-2.5,0-5.5.6-8.6,1.7-3.2,1.2-6.3,2.9-9.2,5.1-.3.2-.4.6-.4,1l3,17.6c0,.3.3.6.6.8.1,0,.3,0,.4,0,.2,0,.4,0,.6-.2,2.1-1.5,4.3-2.6,6.4-3.4,2.1-.8,3.8-1.2,5.1-1.2,5.2,0,7.7,4.1,7.7,12.7v2.4h-5c-7.1,0-12.8,2.8-16.7,8.3-3.9,5.4-5.8,13.1-5.8,23s1.4,15.3,4.2,20.6c2.9,5.6,6.8,8.4,11.8,8.4s5.9-1.1,8.7-3.2c2.2-1.7,4.1-4.1,5.7-7.2,1,2.6,2.2,4.7,3.7,6.2,1.9,2,4.3,3.2,7.1,3.8,0,0,.1,0,.2,0,.2,0,.4,0,.6-.2.2-.2.4-.4.4-.7l2.7-17.5c0-.4,0-.7-.4-.9-.9-.6-1.5-1.6-1.9-2.9-.4-1.4-.6-3.8-.6-7v-34.9c0-10.3-1.6-18.3-4.9-23.9-3.3-5.7-8.5-8.6-15.5-8.6h0ZM1018.7,118.7c-1.5,0-2.6-.8-3.5-2.4-1-1.8-1.4-4.3-1.4-7.5s.8-7.3,2.4-9.3c1.5-2,3.9-3,7.3-3h2.2v13.3c-.8,2.9-1.9,5.2-3.3,6.7-1.3,1.5-2.6,2.2-3.7,2.2h0Z"/>
      </g>
      <g>
        <path class="cls-1" d="M1063.5,136.3c-.2,0-.5-.2-.5-.4l-14.9-89.1c0-.1,0-.3.1-.4,0-.1.2-.2.4-.2h14.2c.3,0,.5.2.5.4l8.1,64.9,8.5-64.9c0-.2.2-.4.5-.4h13.3c.1,0,.3,0,.4.2,0,.1.1.3.1.4l-14.7,89.1c0,.2-.2.4-.5.4h-15.5Z"/>
        <path class="cls-2" d="M1093.8,46.7l-14.7,89.1h-15.5l-14.9-89.1h14.2l8.6,68.8,9-68.8h13.3M1093.8,45.7h-13.3c-.5,0-.9.4-1,.9l-8,61.1-7.6-61.1c0-.5-.5-.9-1-.9h-14.2c-.3,0-.6.1-.8.4-.2.2-.3.5-.2.8l14.9,89.1c0,.5.5.8,1,.8h15.5c.5,0,.9-.4,1-.8l14.7-89.1c0-.3,0-.6-.2-.8-.2-.2-.5-.4-.8-.4h0ZM1093.8,47.7h0,0Z"/>
      </g>
      <g>
        <path class="cls-1" d="M1114,139.1c-4.7,0-8.5-2.7-11.3-8.1-2.7-5.3-4.1-12.1-4.1-20.4s1.9-17.4,5.7-22.7c3.8-5.4,9.3-8.1,16.3-8.1h5.5v-2.9c0-8.9-2.7-13.2-8.2-13.2s-3.1.4-5.3,1.2c-2.2.8-4.4,1.9-6.6,3.4,0,0-.2,0-.3,0s-.1,0-.2,0c-.2,0-.3-.2-.3-.4l-3-17.6c0-.2,0-.4.2-.5,2.9-2.2,5.9-3.9,9.1-5,3.1-1.1,6-1.7,8.5-1.7,6.7,0,11.8,2.8,15,8.3,3.2,5.5,4.8,13.4,4.8,23.6v34.9c0,3.3.2,5.7.7,7.2.4,1.4,1.1,2.5,2.1,3.2.1.1.2.3.2.5l-2.7,17.5c0,.1,0,.3-.2.3,0,0-.2,0-.3,0s0,0,0,0c-2.7-.5-5-1.7-6.9-3.6-1.6-1.6-3-4.1-4-7.2-1.6,3.5-3.7,6.2-6.1,8.1-2.7,2-5.5,3.1-8.4,3.1ZM1123.3,95.9c-3.5,0-6.1,1.1-7.7,3.2-1.6,2.2-2.5,5.4-2.5,9.6s.5,5.9,1.5,7.8c1,1.8,2.2,2.6,3.9,2.6s2.6-.8,4.1-2.4c1.5-1.6,2.6-4,3.4-7v-13.9h-2.7Z"/>
        <path class="cls-2" d="M1119.9,43.7c6.6,0,11.4,2.7,14.6,8.1,3.1,5.4,4.7,13.2,4.7,23.4v34.9c0,3.4.2,5.8.7,7.3.5,1.5,1.2,2.7,2.2,3.4l-2.7,17.5c-2.6-.5-4.8-1.7-6.6-3.5-1.8-1.8-3.2-4.6-4.2-8.3-1.7,4.1-3.9,7.1-6.5,9.1-2.6,2-5.3,3-8.1,3-4.6,0-8.2-2.6-10.9-7.8-2.7-5.2-4.1-12-4.1-20.2s1.9-17.1,5.6-22.4c3.8-5.3,9.1-7.9,15.9-7.9h6v-3.4c0-9.1-2.9-13.7-8.7-13.7s-3.2.4-5.5,1.2c-2.2.8-4.4,2-6.7,3.5l-3-17.6c2.9-2.2,5.8-3.8,8.9-5,3.1-1.1,5.9-1.7,8.3-1.7M1118.6,119.7c1.4,0,2.9-.9,4.5-2.6,1.6-1.7,2.7-4.1,3.5-7.3v-14.4h-3.2c-3.7,0-6.4,1.1-8.1,3.4-1.7,2.3-2.6,5.6-2.6,9.9s.5,6.1,1.6,8c1,1.9,2.5,2.9,4.4,2.9M1119.9,42.7c-2.5,0-5.5.6-8.6,1.7-3.2,1.2-6.3,2.9-9.2,5.1-.3.2-.4.6-.4,1l3,17.6c0,.3.3.6.6.8.1,0,.3,0,.4,0,.2,0,.4,0,.6-.2,2.1-1.5,4.3-2.6,6.4-3.4,2.1-.8,3.8-1.2,5.1-1.2,5.2,0,7.7,4.1,7.7,12.7v2.4h-5c-7.1,0-12.8,2.8-16.7,8.3-3.9,5.4-5.8,13.1-5.8,23s1.4,15.3,4.2,20.6c2.9,5.6,6.8,8.4,11.8,8.4s5.9-1.1,8.7-3.2c2.2-1.7,4.1-4.1,5.7-7.2,1,2.6,2.2,4.7,3.7,6.2,1.9,2,4.3,3.2,7.1,3.8,0,0,.1,0,.2,0,.2,0,.4,0,.6-.2.2-.2.4-.4.4-.7l2.7-17.5c0-.4,0-.7-.4-.9-.9-.6-1.5-1.6-1.9-2.9-.4-1.4-.6-3.8-.6-7v-34.9c0-10.3-1.6-18.3-4.9-23.9-3.3-5.7-8.5-8.6-15.5-8.6h0ZM1118.6,118.7c-1.5,0-2.6-.8-3.5-2.4-1-1.8-1.4-4.3-1.4-7.5s.8-7.3,2.4-9.3c1.5-2,3.9-3,7.3-3h2.2v13.3c-.8,2.9-1.9,5.2-3.3,6.7-1.3,1.5-2.6,2.2-3.7,2.2h0Z"/>
      </g>
      <g>
        <path class="cls-1" d="M1200.5,136.3c-.3,0-.5-.2-.5-.5v-18.8c0,0,0-.2,0-.2,4.7-9.2,8.7-17.2,11.9-23.8,3.2-6.6,5.8-12.4,7.7-17.2,1.9-4.8,3.3-9.1,4.1-12.8.8-3.7,1.2-7.3,1.2-10.7s-.7-8.3-2-10.9c-1.3-2.6-3-3.8-5.3-3.8s-3.8.8-5.3,2.6c-1.6,1.8-3.1,4.8-4.6,8.8,0,.2-.2.3-.4.3,0,0,0,0,0,0-.2,0-.3,0-.4-.2l-8.1-12.3c0-.1-.1-.3,0-.4,2.2-6.1,4.9-11,8.1-14.6,3.2-3.7,7.3-5.6,12.1-5.6s8.3,1.6,11.4,4.8c3,3.1,5.3,7.3,6.8,12.4,1.5,5.1,2.2,10.7,2.2,16.6s-.4,9.4-1.2,13.9c-.8,4.5-2.1,9.3-3.9,14.3-1.8,5-4.2,10.6-7.2,16.7-2.9,5.9-6.5,12.7-10.7,20.3h23.8c.1,0,.3,0,.4.2,0,.1.1.2.1.4l-1.4,20.2c0,.3-.2.5-.5.5h-38.3Z"/>
        <path class="cls-2" d="M1219.1,16.5c4.4,0,8.1,1.5,11,4.6,3,3.1,5.2,7.1,6.7,12.2,1.5,5.1,2.2,10.6,2.2,16.5s-.4,9.3-1.2,13.8c-.8,4.5-2.1,9.3-3.9,14.3-1.8,5-4.2,10.6-7.2,16.7-3,6.1-6.7,13.1-11.1,21h24.6l-1.4,20.2h-38.3v-18.8c4.7-9.2,8.7-17.2,11.9-23.8,3.2-6.7,5.8-12.4,7.7-17.2,1.9-4.8,3.3-9.1,4.1-12.9.8-3.7,1.2-7.4,1.2-10.8s-.7-8.4-2-11.2c-1.3-2.7-3.3-4.1-5.7-4.1s-4.1.9-5.7,2.8c-1.6,1.8-3.2,4.8-4.7,9l-8.1-12.3c2.2-6,4.8-10.9,8-14.5,3.2-3.6,7.1-5.4,11.7-5.4M1240.3,115.6h0M1219.1,15.5c-4.9,0-9.1,1.9-12.5,5.8-3.2,3.7-6,8.7-8.2,14.8-.1.3,0,.6.1.9l8.1,12.3c.2.3.5.4.8.4s0,0,.1,0c.4,0,.7-.3.8-.7,1.5-4,3-6.9,4.5-8.7,1.4-1.6,3-2.4,4.9-2.4s3.7,1.2,4.8,3.6c1.3,2.6,1.9,6.2,1.9,10.7s-.4,6.9-1.2,10.6c-.8,3.7-2.2,8-4.1,12.7-1.9,4.8-4.5,10.6-7.7,17.2-3.2,6.6-7.2,14.6-11.9,23.8,0,.1-.1.3-.1.5v18.8c0,.6.4,1,1,1h38.3c.5,0,1-.4,1-.9l1.4-20.2s0,0,0-.1c0-.6-.4-1-1-1h-23c4-7.3,7.5-13.9,10.3-19.5,3-6.1,5.4-11.7,7.2-16.8,1.8-5,3.1-9.9,3.9-14.4.8-4.5,1.2-9.2,1.2-14s-.8-11.6-2.3-16.8c-1.5-5.2-3.8-9.4-6.9-12.6-3.1-3.3-7.1-4.9-11.7-4.9h0Z"/>
      </g>
      <g>
        <path class="cls-1" d="M1250.4,136.3c-.3,0-.5-.2-.5-.5V19.5c0-.3.2-.5.5-.5h14.6c3.7,0,7.4.8,10.9,2.4,3.5,1.6,6.7,4.5,9.5,8.7,2.8,4.1,5,10.1,6.6,17.6,1.6,7.5,2.4,17.4,2.4,29.4s-.8,21.6-2.3,29.3c-1.5,7.7-3.7,13.8-6.3,18.1-2.7,4.3-5.8,7.4-9.2,9.2-3.4,1.8-7,2.7-10.6,2.7h-15.6ZM1266.9,115.4c2.4,0,4.5-1,6.3-3.1,1.8-2.1,3.3-6,4.4-11.6,1.1-5.6,1.6-13.6,1.6-23.7s-.6-18.3-1.7-23.6c-1.1-5.2-2.6-8.8-4.4-10.7-1.8-1.8-3.9-2.7-6.2-2.7h-2.4v75.5h2.4Z"/>
        <path class="cls-2" d="M1264.9,19.5c3.7,0,7.3.8,10.7,2.3,3.5,1.5,6.5,4.4,9.3,8.5,2.7,4.1,4.9,9.9,6.5,17.5,1.6,7.5,2.4,17.3,2.4,29.3s-.8,21.5-2.3,29.2c-1.5,7.7-3.6,13.6-6.3,17.9-2.6,4.3-5.6,7.3-9,9-3.3,1.7-6.8,2.6-10.4,2.6h-15.6V19.5h14.6M1264,115.9h2.9c2.5,0,4.7-1.1,6.7-3.3,1.9-2.2,3.4-6.1,4.5-11.8,1.1-5.7,1.6-13.6,1.6-23.8s-.6-18.4-1.7-23.8c-1.1-5.4-2.7-9-4.6-11-1.9-1.9-4.1-2.9-6.5-2.9h-2.9v76.5M1264.9,18.5h-14.6c-.6,0-1,.4-1,1v116.3c0,.6.4,1,1,1h15.6c3.7,0,7.4-.9,10.8-2.7,3.5-1.8,6.6-5,9.4-9.4,2.7-4.4,4.8-10.5,6.4-18.2,1.5-7.7,2.3-17.6,2.3-29.4s-.8-22-2.4-29.5c-1.6-7.6-3.9-13.6-6.7-17.8-2.8-4.3-6.1-7.2-9.7-8.8-3.6-1.6-7.3-2.4-11.1-2.4h0ZM1265,40.4h1.9c2.2,0,4.1.9,5.8,2.6,1.8,1.8,3.2,5.3,4.3,10.4,1.1,5.3,1.7,13.2,1.7,23.5s-.5,18-1.6,23.6c-1,5.5-2.5,9.3-4.3,11.3-1.7,2-3.7,3-5.9,3h-1.9V40.4h0Z"/>
      </g>
      <g>
        <path class="cls-1" d="M1373,139.1c-8.4,0-14.8-5.4-19.2-16-4.3-10.4-6.5-25.9-6.5-45.8s1.2-24.5,3.6-33.5c2.4-9.1,5.7-16,9.8-20.7,4.1-4.7,8.8-7.1,13.9-7.1s8,1.4,11,4.1c2.9,2.7,5.5,6.2,7.8,10.5,0,.1,0,.3,0,.4l-7.2,14.9c0,.2-.2.3-.4.3,0,0,0,0,0,0-.2,0-.3,0-.4-.3-1.7-3.1-3.4-5.4-4.9-6.8-1.5-1.4-3.2-2.1-5.2-2.1s-4.6,1.3-6.5,3.9c-2,2.7-3.5,7.1-4.7,13-1.2,6-1.7,13.9-1.7,23.5s.4,18.2,1.2,24.1c.8,5.9,2,10.2,3.7,12.7,1.6,2.5,3.5,3.7,5.9,3.7s2.5-.3,3.6-.9c1.1-.6,2.1-1.4,3.1-2.3v-25.9h-6.7c-.3,0-.5-.2-.5-.5l-1.3-19.3c0-.1,0-.3.1-.4,0-.1.2-.2.4-.2h21.5c.3,0,.5.2.5.5v57.8c0,.1,0,.2-.1.3-2.9,3.6-6.1,6.5-9.4,8.7-3.4,2.2-7.1,3.3-11.2,3.3Z"/>
        <path class="cls-2" d="M1374.6,16.5c4.2,0,7.8,1.3,10.7,3.9,2.9,2.6,5.5,6.1,7.7,10.4l-7.2,14.9c-1.7-3.1-3.4-5.5-5-7-1.6-1.5-3.4-2.3-5.5-2.3s-4.9,1.4-6.9,4.2c-2,2.8-3.6,7.2-4.8,13.2-1.2,6-1.7,13.9-1.7,23.6s.4,18.2,1.2,24.2c.8,6,2.1,10.3,3.7,12.9,1.7,2.6,3.8,3.9,6.3,3.9s2.6-.3,3.8-1c1.2-.6,2.3-1.5,3.3-2.6v-26.6h-7.2l-1.3-19.3h21.5v57.8c-2.9,3.6-6,6.4-9.3,8.6-3.3,2.1-6.9,3.2-10.9,3.2-8.2,0-14.4-5.2-18.8-15.7-4.3-10.4-6.5-25.6-6.5-45.6s1.2-24.3,3.6-33.4c2.4-9,5.6-15.9,9.7-20.5,4.1-4.6,8.6-7,13.6-7M1374.6,15.5c-5.3,0-10.1,2.5-14.3,7.3-4.1,4.7-7.5,11.8-9.9,20.9-2.4,9.1-3.6,20.4-3.6,33.6,0,20,2.2,35.5,6.5,46,4.5,10.8,11.1,16.3,19.7,16.3s8-1.1,11.4-3.3c3.4-2.2,6.6-5.1,9.5-8.8.1-.2.2-.4.2-.6v-57.8c0-.6-.4-1-1-1h-21.5c-.3,0-.5.1-.7.3-.2.2-.3.5-.3.8l1.3,19.3c0,.5.5.9,1,.9h6.2v25.2c-.9.9-1.8,1.6-2.8,2.1-1,.6-2.2.8-3.4.8-2.2,0-4-1.1-5.5-3.4-1.6-2.5-2.8-6.7-3.6-12.5-.8-5.9-1.2-14-1.2-24s.6-17.5,1.7-23.4c1.1-5.8,2.7-10.1,4.6-12.8,1.8-2.5,3.8-3.7,6.1-3.7s3.4.7,4.8,2c1.5,1.4,3.2,3.7,4.8,6.7.2.3.5.5.9.5s0,0,0,0c.4,0,.7-.2.9-.6l7.2-14.9c.1-.3.1-.6,0-.9-2.3-4.4-5-8-7.9-10.7-3.1-2.8-6.9-4.2-11.3-4.2h0Z"/>
      </g>
      <g>
        <path class="cls-1" d="M1413.8,139.1c-4.7,0-8.5-2.7-11.3-8.1-2.7-5.3-4.1-12.1-4.1-20.4s1.9-17.4,5.7-22.7c3.8-5.4,9.3-8.1,16.3-8.1h5.5v-2.9c0-8.9-2.7-13.2-8.2-13.2s-3.1.4-5.3,1.2c-2.2.8-4.4,1.9-6.6,3.4,0,0-.2,0-.3,0s-.1,0-.2,0c-.2,0-.3-.2-.3-.4l-3-17.6c0-.2,0-.4.2-.5,2.9-2.2,5.9-3.9,9.1-5,3.1-1.1,6-1.7,8.5-1.7,6.7,0,11.8,2.8,15,8.3,3.2,5.5,4.8,13.4,4.8,23.6v34.9c0,3.3.2,5.7.7,7.2.4,1.4,1.1,2.5,2.1,3.2.1.1.2.3.2.5l-2.7,17.5c0,.1,0,.3-.2.3,0,0-.2,0-.3,0s0,0,0,0c-2.7-.5-5-1.7-6.9-3.6-1.6-1.6-3-4.1-4-7.2-1.6,3.5-3.7,6.2-6.1,8.1-2.7,2-5.5,3.1-8.4,3.1ZM1423,95.9c-3.5,0-6.1,1.1-7.7,3.2-1.6,2.2-2.5,5.4-2.5,9.6s.5,5.9,1.5,7.8c1,1.8,2.2,2.6,3.9,2.6s2.6-.8,4.1-2.4c1.5-1.6,2.6-4,3.4-7v-13.9h-2.7Z"/>
        <path class="cls-2" d="M1419.6,43.7c6.6,0,11.4,2.7,14.6,8.1,3.1,5.4,4.7,13.2,4.7,23.4v34.9c0,3.4.2,5.8.7,7.3.5,1.5,1.2,2.7,2.2,3.4l-2.7,17.5c-2.6-.5-4.8-1.7-6.6-3.5-1.8-1.8-3.2-4.6-4.2-8.3-1.7,4.1-3.9,7.1-6.5,9.1-2.6,2-5.3,3-8.1,3-4.6,0-8.2-2.6-10.9-7.8-2.7-5.2-4.1-12-4.1-20.2s1.9-17.1,5.6-22.4c3.8-5.3,9.1-7.9,15.9-7.9h6v-3.4c0-9.1-2.9-13.7-8.7-13.7s-3.2.4-5.5,1.2c-2.2.8-4.4,2-6.7,3.5l-3-17.6c2.9-2.2,5.8-3.8,8.9-5,3.1-1.1,5.9-1.7,8.3-1.7M1418.3,119.7c1.4,0,2.9-.9,4.5-2.6,1.6-1.7,2.7-4.1,3.5-7.3v-14.4h-3.2c-3.7,0-6.4,1.1-8.1,3.4-1.7,2.3-2.6,5.6-2.6,9.9s.5,6.1,1.6,8c1,1.9,2.5,2.9,4.4,2.9M1419.6,42.7c-2.5,0-5.5.6-8.6,1.7-3.2,1.2-6.3,2.9-9.2,5.1-.3.2-.4.6-.4,1l3,17.6c0,.3.3.6.6.8.1,0,.3,0,.4,0,.2,0,.4,0,.6-.2,2.1-1.5,4.3-2.6,6.4-3.4,2.1-.8,3.8-1.2,5.1-1.2,5.2,0,7.7,4.1,7.7,12.7v2.4h-5c-7.1,0-12.8,2.8-16.7,8.3-3.9,5.4-5.8,13.1-5.8,23s1.4,15.3,4.2,20.6c2.9,5.6,6.8,8.4,11.8,8.4s5.9-1.1,8.7-3.2c2.2-1.7,4.1-4.1,5.7-7.2,1,2.6,2.2,4.7,3.7,6.2,1.9,2,4.3,3.2,7.1,3.8,0,0,.1,0,.2,0,.2,0,.4,0,.6-.2.2-.2.4-.4.4-.7l2.7-17.5c0-.4,0-.7-.4-.9-.9-.6-1.5-1.6-1.9-2.9-.4-1.4-.6-3.8-.6-7v-34.9c0-10.3-1.6-18.3-4.9-23.9-3.3-5.7-8.5-8.6-15.5-8.6h0ZM1418.3,118.7c-1.5,0-2.6-.8-3.5-2.4-1-1.8-1.4-4.3-1.4-7.5s.8-7.3,2.4-9.3c1.5-2,3.9-3,7.3-3h2.2v13.3c-.8,2.9-1.9,5.2-3.3,6.7-1.3,1.5-2.6,2.2-3.7,2.2h0Z"/>
      </g>
      <g>
        <path class="cls-1" d="M1482.3,136.3c-.3,0-.5-.2-.5-.5v-62.9c0-3.1-.1-5.3-.4-6.5-.3-1.5-1-1.5-1.3-1.5-.5,0-1.1.4-1.8,1.1-.7.8-1.5,2.2-2.3,4.3v65.6c0,.3-.2.5-.5.5h-9.2c-.3,0-.5-.2-.5-.5v-62.9c0-3.1-.1-5.3-.4-6.5-.3-1.5-1-1.5-1.3-1.5-.5,0-1.1.4-1.8,1.1-.7.8-1.5,2.2-2.3,4.3v65.6c0,.3-.2.5-.5.5h-11.4c-.3,0-.5-.2-.5-.5V46.7c0-.3.2-.5.5-.5h9.7c.3,0,.5.2.5.4l.7,6.5c1.2-2.9,2.3-5.2,3.5-6.8,1.5-2.1,3.3-3.1,5.4-3.1s3.4.9,4.7,2.8c1,1.5,1.8,3.7,2.3,6.6,1.2-2.5,2.4-4.6,3.8-6.2,1.7-2.1,3.6-3.1,5.7-3.1,3.4,0,5.9,2.2,7.4,6.5,1.5,4.1,2.3,10.9,2.3,20.1v66c0,.3-.2.5-.5.5h-11.3Z"/>
        <path class="cls-2" d="M1484.4,43.7c3.1,0,5.5,2.1,7,6.2,1.5,4.1,2.3,10.8,2.3,19.9v66h-11.3v-62.9c0-3.1-.1-5.3-.4-6.6-.3-1.3-.9-1.9-1.8-1.9s-1.4.4-2.1,1.2c-.7.8-1.5,2.3-2.4,4.6v65.7h-9.2v-62.9c0-3.1-.1-5.3-.4-6.6-.3-1.3-.9-1.9-1.8-1.9s-1.4.4-2.1,1.2c-.7.8-1.5,2.3-2.4,4.6v65.7h-11.4V46.7h9.7l.9,8.6c1.4-3.8,2.8-6.7,4.2-8.6,1.4-2,3.1-2.9,5-2.9s3.1.9,4.3,2.6c1.2,1.7,2,4.4,2.5,8,1.3-3.1,2.8-5.7,4.4-7.6,1.6-2,3.4-2.9,5.3-2.9M1484.4,42.7c-2.2,0-4.3,1.1-6.1,3.3-1.1,1.4-2.2,3.1-3.2,5-.5-2.3-1.2-4-2.1-5.3-1.4-2-3.1-3-5.1-3s-4.2,1.1-5.8,3.4c-.9,1.3-1.9,3-2.8,5.1l-.5-4.6c0-.5-.5-.9-1-.9h-9.7c-.6,0-1,.4-1,1v89.1c0,.6.4,1,1,1h11.4c.6,0,1-.4,1-1v-65.5c1-2.5,1.7-3.6,2.2-4.1.4-.4.9-.9,1.4-.9s.5,0,.8,1.2c.3,1.2.4,3.4.4,6.4v62.9c0,.6.4,1,1,1h9.2c.6,0,1-.4,1-1v-65.5c1-2.5,1.7-3.6,2.2-4.1.4-.4.9-.9,1.4-.9s.5,0,.8,1.2c.3,1.2.4,3.4.4,6.4v62.9c0,.6.4,1,1,1h11.3c.6,0,1-.4,1-1v-66c0-9.3-.8-16.1-2.3-20.3-1.7-4.5-4.3-6.8-7.9-6.8h0Z"/>
      </g>
      <g>
        <path class="cls-1" d="M1522.6,139.1c-5.2,0-9.6-2.1-13.1-6.3-3.4-4.1-6.1-9.8-7.8-16.9-1.7-7.1-2.6-15.4-2.6-24.6s.8-16.9,2.5-24.1c1.7-7.2,4.2-13.1,7.4-17.4,3.3-4.4,7.4-6.6,12.2-6.6s8.2,1.9,11.4,5.6c3.1,3.7,5.6,9,7.3,15.9,1.7,6.8,2.6,15.1,2.6,24.7s0,3.1,0,4.9c0,1.7-.1,3.3-.2,4.6,0,.3-.2.5-.5.5h-28.1c.5,6.9,1.6,11.9,3.4,14.9,1.8,3,4,4.5,6.6,4.5s3.8-.6,5.6-1.9c1.8-1.3,3.6-3.1,5.3-5.3,0-.1.2-.2.4-.2s0,0,0,0c.2,0,.3.2.4.3l5.3,14.4c0,.1,0,.3,0,.4-2.1,3.6-4.7,6.6-7.7,9-3,2.4-6.5,3.5-10.4,3.5ZM1528.6,82.5c0-6.2-.7-11.2-1.8-15-1.2-3.7-3-5.5-5.6-5.5s-3.9,1.6-5.2,4.8c-1.4,3.3-2.2,8.5-2.6,15.7h15.2Z"/>
        <path class="cls-2" d="M1521.2,43.7c4.2,0,7.9,1.8,11,5.5,3.1,3.6,5.5,8.9,7.2,15.7,1.7,6.8,2.6,15,2.6,24.6s0,3.1,0,4.9c0,1.7-.1,3.3-.2,4.6h-28.6c.4,7.3,1.6,12.5,3.5,15.7,1.9,3.2,4.3,4.7,7.1,4.7s4-.7,5.9-2c1.9-1.3,3.7-3.1,5.5-5.4l5.3,14.4c-2.1,3.6-4.6,6.5-7.6,8.8-3,2.3-6.3,3.4-10.1,3.4s-9.3-2-12.7-6.1c-3.4-4.1-6-9.6-7.7-16.7-1.7-7.1-2.6-15.3-2.6-24.5s.8-16.8,2.5-24c1.7-7.2,4.1-12.9,7.3-17.2,3.2-4.3,7.1-6.4,11.8-6.4M1512.9,83h16.2c0-6.5-.7-11.7-1.9-15.6-1.2-3.9-3.2-5.9-6-5.9s-4.3,1.7-5.7,5.1c-1.4,3.4-2.3,8.9-2.6,16.4M1521.2,42.7c-4.9,0-9.2,2.3-12.6,6.8-3.3,4.4-5.8,10.3-7.5,17.6-1.7,7.2-2.5,15.4-2.5,24.2s.9,17.6,2.6,24.7c1.7,7.2,4.4,13,7.9,17.2,3.6,4.3,8.1,6.4,13.5,6.4s7.6-1.2,10.7-3.7c3-2.4,5.7-5.4,7.8-9.1.1-.3.2-.6,0-.8l-5.3-14.4c-.1-.3-.4-.6-.8-.6,0,0-.1,0-.2,0-.3,0-.6.1-.8.4-1.7,2.1-3.4,3.9-5.2,5.2-1.7,1.2-3.5,1.8-5.3,1.8s-4.5-1.4-6.2-4.3c-1.7-2.9-2.8-7.6-3.3-14.1h27.6c.5,0,1-.4,1-.9,0-1.3.1-2.9.2-4.7,0-1.8,0-3.4,0-4.9,0-9.6-.9-18-2.6-24.8-1.7-6.9-4.2-12.4-7.4-16.1-3.3-3.9-7.2-5.8-11.7-5.8h0ZM1513.9,82c.3-6.8,1.2-11.8,2.5-15,1.3-3,2.8-4.5,4.8-4.5s4,1.7,5.1,5.2c1.1,3.6,1.7,8.4,1.8,14.3h-14.2Z"/>
      </g>
      <g>
        <path class="cls-1" d="M1603.5,136.3c-.3,0-.5-.2-.5-.5V19.5c0-.3.2-.5.5-.5h37.7c.1,0,.3,0,.4.2,0,.1.1.2.1.4l-1.4,19.6c0,.3-.2.5-.5.5h-22.2v26.9h19.5c.3,0,.5.2.5.5v19.3c0,.3-.2.5-.5.5h-19.5v28.7h23.6c.3,0,.5.2.5.5v19.7c0,.3-.2.5-.5.5h-37.8Z"/>
        <path class="cls-2" d="M1641.2,19.5l-1.4,19.6h-22.7v27.9h20v19.3h-20v29.7h24.1v19.7h-37.8V19.5h37.7M1641.2,18.5h-37.7c-.6,0-1,.4-1,1v116.3c0,.6.4,1,1,1h37.8c.6,0,1-.4,1-1v-19.7c0-.6-.4-1-1-1h-23.1v-27.7h19c.6,0,1-.4,1-1v-19.3c0-.6-.4-1-1-1h-19v-25.9h21.7c.5,0,1-.4,1-.9l1.4-19.6c0-.3,0-.5-.3-.8-.2-.2-.5-.3-.7-.3h0ZM1641.2,20.5h0,0Z"/>
      </g>
      <g>
        <path class="cls-1" d="M1676.6,136.3c-.3,0-.5-.2-.5-.5v-57.8c0-5.4-.3-9.2-.9-11.3-.5-1.9-1.5-2.9-2.9-2.9s-2.4.8-3.6,2.5c-1.2,1.7-2.5,4.2-3.7,7.3v62.3c0,.3-.2.5-.5.5h-13.2c-.3,0-.5-.2-.5-.5V46.7c0-.3.2-.5.5-.5h11.5c.3,0,.5.2.5.5l.8,8.4c1.8-3.7,3.6-6.5,5.6-8.4,2.3-2.3,4.9-3.4,7.8-3.4s7.1,2.4,9.4,7.3c2.2,4.7,3.3,11.4,3.3,19.8v65.5c0,.3-.2.5-.5.5h-13.2Z"/>
        <path class="cls-2" d="M1677.6,43.7c3.8,0,6.7,2.3,8.9,7,2.2,4.6,3.2,11.2,3.2,19.6v65.5h-13.2v-57.8c0-5.5-.3-9.3-.9-11.5-.6-2.2-1.7-3.2-3.4-3.2s-2.7.9-4,2.7c-1.3,1.8-2.5,4.3-3.8,7.5v62.4h-13.2V46.7h11.5l.9,10.3c2-4.5,4.1-7.8,6.2-10s4.7-3.3,7.5-3.3M1677.6,42.7c-3.1,0-5.8,1.2-8.2,3.6-1.7,1.7-3.3,4-4.9,7l-.6-6.7c0-.5-.5-.9-1-.9h-11.5c-.6,0-1,.4-1,1v89.1c0,.6.4,1,1,1h13.2c.6,0,1-.4,1-1v-62.2c1.2-3,2.4-5.4,3.6-7.1,1.1-1.5,2.1-2.3,3.2-2.3s1.8.3,2.4,2.5c.6,2.1.9,5.8.9,11.2v57.8c0,.6.4,1,1,1h13.2c.6,0,1-.4,1-1v-65.5c0-8.6-1.1-15.3-3.3-20.1-2.3-5-5.6-7.5-9.8-7.5h0Z"/>
      </g>
      <g>
        <path class="cls-1" d="M1719.6,173.5c-5.7,0-10.3-1.2-13.4-3.6-3.2-2.4-5.4-5.8-6.6-10.2-1.2-4.3-1.8-9.5-1.8-15.4s.2-.5.5-.5h11.7c.3,0,.5.2.5.5,0,2.5.3,4.6.7,6.2.5,1.5,1.4,2.6,2.7,3.4,1.4.7,3.4,1.1,6.1,1.1s4.8-.4,6.2-1.3c1.4-.8,2.3-2,2.8-3.4.5-1.5.8-3.2.8-5s-.5-4.6-1.5-6.1c-.9-1.5-2.4-2.2-4.4-2.2h-7c-4.9,0-8.6-1.9-10.8-5.6-2.2-3.6-3.3-7.9-3.3-12.7s.4-6.5,1.3-9.5c.8-2.8,2-5.3,3.5-7.3-2.7-3-4.7-6.6-5.9-10.6-1.2-4.1-1.9-9.2-1.9-15s.9-12.6,2.6-17.5c1.7-4.9,4.1-8.7,7.2-11.4,3.1-2.7,6.6-4.1,10.6-4.1.3,0,.6,0,1,0,2.8,0,5.3-.5,7.5-1.4,2.4-1,4.5-2.4,6.4-4.2,1.9-1.8,3.8-3.7,5.5-5.8,0-.1.2-.2.4-.2s0,0,.1,0c.2,0,.3.2.4.4l3.1,19.5c0,.2,0,.4-.2.5-1.6,1.3-3.5,2.2-5.6,2.8-1.8.5-3.9.8-6.2.8,2.4,2.3,4.2,5.1,5.5,8.3,1.5,3.6,2.2,8.4,2.2,14.2s-.8,11-2.3,15.6c-1.5,4.6-3.8,8.2-6.6,10.8-2.9,2.6-6.3,4-10.3,4s-3.4-.3-5-.9c-.3.4-.6,1-.7,1.7-.2.9-.4,1.9-.4,2.8s.3,2.5.8,3.5c.5.9,1.7,1.4,3.6,1.4h7.2c3.5,0,6.7,1.2,9.3,3.5,2.6,2.3,4.6,5.4,6,9.4,1.4,3.9,2.1,8.4,2.1,13.4,0,9.2-2,16.5-6.1,21.9-4.1,5.4-10.1,8.1-18.1,8.1ZM1720.3,61.6c-1.9,0-3.4,1.2-4.5,3.7-1.2,2.6-1.8,6.2-1.8,10.7s.6,8.6,1.8,11.1c1.2,2.5,2.6,3.7,4.5,3.7,4.1,0,6.2-5.1,6.2-15.1s-2.1-14.1-6.2-14.1Z"/>
        <path class="cls-2" d="M1740.7,32.4l3.1,19.5c-1.6,1.2-3.4,2.1-5.5,2.7-2.1.6-4.5.8-7.3.8,2.8,2.4,4.9,5.4,6.3,8.9,1.5,3.6,2.2,8.2,2.2,14s-.8,10.9-2.3,15.4c-1.5,4.5-3.7,8-6.5,10.6-2.8,2.6-6.1,3.9-9.9,3.9s-3.5-.3-5.1-1c-.5.5-.8,1.2-1.1,2.2-.2,1-.4,1.9-.4,2.9s.3,2.7.9,3.8c.6,1.1,1.9,1.7,4,1.7h7.2c3.4,0,6.4,1.1,8.9,3.4,2.5,2.2,4.5,5.3,5.8,9.1,1.4,3.9,2.1,8.3,2.1,13.3,0,9.1-2,16.3-6,21.6-4,5.3-9.9,7.9-17.7,7.9s-10-1.2-13.1-3.5c-3.1-2.3-5.2-5.6-6.5-9.9-1.2-4.3-1.8-9.4-1.8-15.2h11.7c0,2.6.3,4.7.8,6.3.5,1.6,1.5,2.9,3,3.7,1.5.8,3.6,1.2,6.3,1.2s4.9-.4,6.4-1.3c1.5-.9,2.5-2.1,3-3.7.5-1.5.8-3.3.8-5.2s-.5-4.8-1.5-6.4c-1-1.6-2.7-2.4-4.9-2.4h-7c-4.8,0-8.2-1.8-10.4-5.3-2.2-3.6-3.2-7.7-3.2-12.5s.4-6.4,1.3-9.4c.9-3,2.1-5.5,3.7-7.5-2.8-3-4.9-6.6-6.1-10.7-1.2-4.1-1.8-9-1.8-14.8s.8-12.5,2.5-17.3c1.7-4.8,4-8.6,7-11.2,3-2.6,6.4-3.9,10.2-3.9.3,0,.6,0,1,0,2.9,0,5.5-.5,7.7-1.4,2.4-1,4.6-2.5,6.6-4.3,1.9-1.8,3.8-3.8,5.6-5.8M1720.3,91.3c4.5,0,6.7-5.2,6.7-15.6s-2.2-14.6-6.7-14.6-3.7,1.3-5,4c-1.2,2.7-1.8,6.3-1.8,11s.6,8.7,1.9,11.3c1.2,2.6,2.9,3.9,4.9,3.9M1740.7,31.4c-.3,0-.6.1-.8.3-1.7,2-3.6,4-5.5,5.8-1.8,1.7-4,3.1-6.3,4.1-2.1.9-4.5,1.3-7.3,1.3s-.6,0-.9,0h0c-4.1,0-7.8,1.4-10.9,4.2-3.1,2.7-5.6,6.6-7.3,11.6-1.7,4.9-2.6,10.9-2.6,17.7s.6,10.9,1.9,15.1c1.2,4,3.1,7.5,5.7,10.5-1.4,2-2.5,4.4-3.3,7.1-.9,3-1.4,6.3-1.4,9.7,0,4.9,1.1,9.3,3.4,13,2.3,3.9,6.1,5.8,11.3,5.8h7c1.9,0,3.2.6,4,2,.9,1.5,1.4,3.4,1.4,5.8s-.3,3.4-.8,4.8c-.5,1.3-1.3,2.3-2.6,3.1-1.3.8-3.3,1.2-5.9,1.2s-4.6-.4-5.9-1.1c-1.2-.7-2-1.7-2.5-3.1-.5-1.5-.7-3.6-.7-6s-.4-1-1-1h-11.7c-.6,0-1,.4-1,1,0,5.9.6,11.2,1.8,15.5,1.3,4.5,3.6,8,6.8,10.4,3.3,2.4,7.9,3.7,13.7,3.7s14.3-2.8,18.5-8.3c4.1-5.4,6.2-12.9,6.2-22.2s-.7-9.6-2.1-13.6c-1.4-4-3.5-7.2-6.1-9.6-2.7-2.4-5.9-3.6-9.6-3.6h-7.2c-1.7,0-2.7-.4-3.1-1.1-.5-1-.7-2.1-.7-3.3s.1-1.8.3-2.7c.1-.5.3-.9.5-1.2,1.5.5,3.1.8,4.8.8,4.1,0,7.6-1.4,10.6-4.1,2.9-2.7,5.2-6.4,6.8-11,1.6-4.6,2.3-9.9,2.3-15.7s-.8-10.7-2.3-14.4c-1.2-2.9-2.8-5.5-4.9-7.6,1.9-.1,3.6-.4,5.1-.8,2.2-.6,4.2-1.6,5.8-2.9.3-.2.4-.6.4-.9l-3.1-19.5c0-.4-.3-.7-.7-.8,0,0-.2,0-.3,0h0ZM1720.3,90.3c-1.6,0-2.9-1.1-4-3.4-1.2-2.5-1.8-6.1-1.8-10.9s.6-8,1.7-10.5c1.1-2.3,2.4-3.4,4-3.4,3.8,0,5.7,4.6,5.7,13.6s-1.9,14.6-5.7,14.6h0Z"/>
      </g>
      <g>
        <path class="cls-1" d="M1752.7,136.3c-.3,0-.5-.2-.5-.5v-18.1c0-.3.2-.5.5-.5h12v-51.9h-11.6c-.3,0-.5-.2-.5-.5v-18.1c0-.3.2-.5.5-.5h25.3c.3,0,.5.2.5.5v70.5h10.7c.3,0,.5.2.5.5v18.1c0,.3-.2.5-.5.5h-36.9ZM1770.5,30.5c-2.5,0-4.5-1.5-6.1-4.6-1.5-2.9-2.2-6.6-2.2-10.9s.8-8,2.2-10.9c1.5-3,3.6-4.6,6.1-4.6s4.5,1.5,6,4.6c1.5,2.9,2.2,6.6,2.2,10.9s-.7,8-2.2,10.9c-1.5,3.1-3.6,4.6-6,4.6Z"/>
        <path class="cls-2" d="M1770.5,0c2.3,0,4.1,1.4,5.6,4.3,1.4,2.9,2.2,6.4,2.2,10.7s-.7,7.8-2.2,10.7c-1.4,2.9-3.3,4.3-5.6,4.3s-4.2-1.4-5.6-4.3c-1.5-2.9-2.2-6.4-2.2-10.7s.7-7.8,2.2-10.7C1766.3,1.4,1768.2,0,1770.5,0M1778.4,46.7v71h11.2v18.1h-36.9v-18.1h12.5v-52.9h-12.1v-18.1h25.3M1770.5-1c-2.7,0-4.9,1.6-6.5,4.8-1.5,3-2.3,6.7-2.3,11.1s.8,8.1,2.3,11.2c1.6,3.2,3.8,4.9,6.5,4.9s4.9-1.6,6.5-4.9c1.5-3,2.3-6.8,2.3-11.1s-.8-8.1-2.3-11.1c-1.6-3.2-3.8-4.8-6.5-4.8h0ZM1778.4,45.7h-25.3c-.6,0-1,.4-1,1v18.1c0,.6.4,1,1,1h11.1v50.9h-11.5c-.6,0-1,.4-1,1v18.1c0,.6.4,1,1,1h36.9c.6,0,1-.4,1-1v-18.1c0-.6-.4-1-1-1h-10.2V46.7c0-.6-.4-1-1-1h0Z"/>
      </g>
      <g>
        <path class="cls-1" d="M1826.5,136.3c-.3,0-.5-.2-.5-.5v-57.8c0-5.4-.3-9.2-.9-11.3-.5-1.9-1.5-2.9-2.9-2.9s-2.4.8-3.6,2.5c-1.2,1.7-2.5,4.2-3.7,7.3v62.3c0,.3-.2.5-.5.5h-13.2c-.3,0-.5-.2-.5-.5V46.7c0-.3.2-.5.5-.5h11.5c.3,0,.5.2.5.5l.8,8.4c1.8-3.7,3.6-6.5,5.6-8.4,2.3-2.3,4.9-3.4,7.8-3.4s7.1,2.4,9.4,7.3c2.2,4.7,3.3,11.4,3.3,19.8v65.5c0,.3-.2.5-.5.5h-13.2Z"/>
        <path class="cls-2" d="M1827.5,43.7c3.8,0,6.7,2.3,8.9,7,2.2,4.6,3.2,11.2,3.2,19.6v65.5h-13.2v-57.8c0-5.5-.3-9.3-.9-11.5-.6-2.2-1.7-3.2-3.4-3.2s-2.7.9-4,2.7c-1.3,1.8-2.5,4.3-3.8,7.5v62.4h-13.2V46.7h11.5l.9,10.3c2-4.5,4.1-7.8,6.2-10s4.7-3.3,7.5-3.3M1827.5,42.7c-3.1,0-5.8,1.2-8.2,3.6-1.7,1.7-3.3,4-4.9,7l-.6-6.7c0-.5-.5-.9-1-.9h-11.5c-.6,0-1,.4-1,1v89.1c0,.6.4,1,1,1h13.2c.6,0,1-.4,1-1v-62.2c1.2-3,2.4-5.4,3.6-7.1,1.1-1.5,2.1-2.3,3.2-2.3s1.8.3,2.4,2.5c.6,2.1.9,5.8.9,11.2v57.8c0,.6.4,1,1,1h13.2c.6,0,1-.4,1-1v-65.5c0-8.6-1.1-15.3-3.3-20.1-2.3-5-5.6-7.5-9.8-7.5h0Z"/>
      </g>
      <g>
        <path class="cls-1" d="M1872.3,139.1c-5.2,0-9.6-2.1-13.1-6.3-3.4-4.1-6.1-9.8-7.8-16.9-1.7-7.1-2.6-15.4-2.6-24.6s.8-16.9,2.5-24.1c1.7-7.2,4.2-13.1,7.4-17.4,3.3-4.4,7.4-6.6,12.2-6.6s8.2,1.9,11.4,5.6c3.1,3.7,5.6,9,7.3,15.9,1.7,6.8,2.6,15.1,2.6,24.7s0,3.1,0,4.9c0,1.7-.1,3.3-.2,4.6,0,.3-.2.5-.5.5h-28.1c.5,6.9,1.6,11.9,3.4,14.9,1.8,3,4,4.5,6.6,4.5s3.8-.6,5.6-1.9c1.8-1.3,3.6-3.1,5.3-5.3,0-.1.2-.2.4-.2s0,0,0,0c.2,0,.3.2.4.3l5.3,14.4c0,.1,0,.3,0,.4-2.1,3.6-4.7,6.6-7.7,9-3,2.4-6.5,3.5-10.4,3.5ZM1878.3,82.5c0-6.2-.7-11.2-1.8-15-1.2-3.7-3-5.5-5.6-5.5s-3.9,1.6-5.2,4.8c-1.4,3.3-2.2,8.5-2.6,15.7h15.2Z"/>
        <path class="cls-2" d="M1870.9,43.7c4.2,0,7.9,1.8,11,5.5,3.1,3.6,5.5,8.9,7.2,15.7,1.7,6.8,2.6,15,2.6,24.6s0,3.1,0,4.9c0,1.7-.1,3.3-.2,4.6h-28.6c.4,7.3,1.6,12.5,3.5,15.7,1.9,3.2,4.3,4.7,7.1,4.7s4-.7,5.9-2c1.9-1.3,3.7-3.1,5.5-5.4l5.3,14.4c-2.1,3.6-4.6,6.5-7.6,8.8-3,2.3-6.3,3.4-10.1,3.4s-9.3-2-12.7-6.1c-3.4-4.1-6-9.6-7.7-16.7-1.7-7.1-2.6-15.3-2.6-24.5s.8-16.8,2.5-24c1.7-7.2,4.1-12.9,7.3-17.2,3.2-4.3,7.1-6.4,11.8-6.4M1862.6,83h16.2c0-6.5-.7-11.7-1.9-15.6-1.2-3.9-3.2-5.9-6-5.9s-4.3,1.7-5.7,5.1c-1.4,3.4-2.3,8.9-2.6,16.4M1870.9,42.7c-4.9,0-9.2,2.3-12.6,6.8-3.3,4.4-5.8,10.3-7.5,17.6-1.7,7.2-2.5,15.4-2.5,24.2s.9,17.6,2.6,24.7c1.7,7.2,4.4,13,7.9,17.2,3.6,4.3,8.1,6.4,13.5,6.4s7.6-1.2,10.7-3.7c3-2.4,5.7-5.4,7.8-9.1.1-.3.2-.6,0-.8l-5.3-14.4c-.1-.3-.4-.6-.8-.6,0,0-.1,0-.2,0-.3,0-.6.1-.8.4-1.7,2.1-3.4,3.9-5.2,5.2-1.7,1.2-3.5,1.8-5.3,1.8s-4.5-1.4-6.2-4.3c-1.7-2.9-2.8-7.6-3.3-14.1h27.6c.5,0,1-.4,1-.9,0-1.3.1-2.9.2-4.7,0-1.8,0-3.4,0-4.9,0-9.6-.9-18-2.6-24.8-1.7-6.9-4.2-12.4-7.4-16.1-3.3-3.9-7.2-5.8-11.7-5.8h0ZM1863.6,82c.3-6.8,1.2-11.8,2.5-15,1.3-3,2.8-4.5,4.8-4.5s4,1.7,5.1,5.2c1.1,3.6,1.7,8.4,1.8,14.3h-14.2Z"/>
      </g>
    </g>
  </g>
</svg>